<svg version="1.1" viewBox="0.0 0.0 3150.0 1800.0" fill="none" stroke="none" stroke-linecap="square" stroke-miterlimit="10" xmlns:xlink="http://www.w3.org/1999/xlink" xmlns="http://www.w3.org/2000/svg"><clipPath id="p.0"><path d="m0 0l3150.0 0l0 1800.0l-3150.0 0l0 -1800.0z" clip-rule="nonzero"/></clipPath><g clip-path="url(#p.0)"><path fill="#000000" fill-opacity="0.0" d="m0 0l3150.0 0l0 1800.0l-3150.0 0z" fill-rule="evenodd"/><path fill="#000000" fill-opacity="0.0" d="m244.80052 230.39896l554.3937 0l0 74.33069l-554.3937 0z" fill-rule="evenodd"/><path fill="#00b4d8" d="m279.50366 279.30957q-1.453125 1.65625 -3.234375 2.671875q-1.78125 1.0 -3.5625 1.0q-1.96875 0 -3.828125 -1.140625q-1.859375 -1.15625 -3.03125 -3.546875q-1.15625 -2.390625 -1.15625 -5.25q0 -3.515625 1.796875 -7.046875q1.8125 -3.53125 4.484375 -5.296875q2.6875 -1.765625 5.203125 -1.765625q1.921875 0 3.671875 1.0q1.75 1.0 3.015625 3.0625l0.75 -3.421875l3.96875 0l-3.1875 14.84375q-0.671875 3.09375 -0.671875 3.4375q0 0.59375 0.453125 1.03125q0.453125 0.421875 1.09375 0.421875q1.171875 0 3.078125 -1.34375q2.53125 -1.78125 4.0 -4.75q1.46875 -2.984375 1.46875 -6.140625q0 -3.703125 -1.890625 -6.90625q-1.890625 -3.21875 -5.640625 -5.140625q-3.75 -1.921875 -8.296875 -1.921875q-5.171875 0 -9.453125 2.421875q-4.28125 2.421875 -6.640625 6.953125q-2.359375 4.53125 -2.359375 9.703125q0 5.421875 2.359375 9.34375q2.359375 3.90625 6.8125 5.78125q4.453125 1.875 9.875 1.875q5.8125 0 9.71875 -1.953125q3.921875 -1.9375 5.875 -4.734375l4.0 0q-1.125 2.328125 -3.875 4.734375q-2.734375 2.421875 -6.53125 3.828125q-3.78125 1.40625 -9.109375 1.40625q-4.921875 0 -9.078125 -1.265625q-4.140625 -1.265625 -7.0625 -3.796875q-2.921875 -2.53125 -4.40625 -5.828125q-1.859375 -4.1875 -1.859375 -9.03125q0 -5.40625 2.21875 -10.296875q2.703125 -6.0 7.671875 -9.1875q4.96875 -3.1875 12.046875 -3.1875q5.484375 0 9.859375 2.25q4.375 2.25 6.890625 6.6875q2.15625 3.828125 2.15625 8.328125q0 6.421875 -4.515625 11.40625q-4.03125 4.46875 -8.8125 4.46875q-1.53125 0 -2.46875 -0.46875q-0.9375 -0.46875 -1.390625 -1.328125q-0.28125 -0.546875 -0.40625 -1.90625zm-10.71875 -6.0q0 3.03125 1.4375 4.71875q1.4375 1.6875 3.296875 1.6875q1.234375 0 2.609375 -0.734375q1.375 -0.75 2.625 -2.203125q1.25 -1.46875 2.046875 -3.71875q0.796875 -2.25 0.796875 -4.5q0 -3.015625 -1.5 -4.671875q-1.484375 -1.65625 -3.625 -1.65625q-1.421875 0 -2.671875 0.71875q-1.25 0.71875 -2.421875 2.3125q-1.171875 1.59375 -1.890625 3.875q-0.703125 2.265625 -0.703125 4.171875zm34.529877 9.609375l0 -32.453125l11.171875 0q3.78125 0 5.78125 0.46875q2.78125 0.640625 4.75 2.328125q2.578125 2.171875 3.84375 5.546875q1.28125 3.375 1.28125 7.703125q0 3.703125 -0.875 6.5625q-0.859375 2.84375 -2.21875 4.71875q-1.34375 1.875 -2.953125 2.953125q-1.59375 1.0625 -3.859375 1.625q-2.265625 0.546875 -5.21875 0.546875l-11.703125 0zm4.296875 -3.828125l6.921875 0q3.203125 0 5.03125 -0.59375q1.828125 -0.609375 2.921875 -1.6875q1.515625 -1.53125 2.359375 -4.109375q0.859375 -2.578125 0.859375 -6.25q0 -5.09375 -1.671875 -7.828125q-1.671875 -2.734375 -4.0625 -3.65625q-1.71875 -0.671875 -5.546875 -0.671875l-6.8125 0l0 24.796875zm44.015778 -3.734375l4.109375 0.5q-0.96875 3.609375 -3.609375 5.609375q-2.625 1.984375 -6.71875 1.984375q-5.15625 0 -8.1875 -3.171875q-3.015625 -3.1875 -3.015625 -8.90625q0 -5.9375 3.046875 -9.203125q3.0625 -3.28125 7.9375 -3.28125q4.71875 0 7.703125 3.203125q2.984375 3.203125 2.984375 9.03125q0 0.359375 -0.015625 1.0625l-17.53125 0q0.21875 3.875 2.1875 5.9375q1.96875 2.046875 4.90625 2.046875q2.203125 0 3.75 -1.140625q1.546875 -1.15625 2.453125 -3.671875zm-13.078125 -6.453125l13.125 0q-0.265625 -2.953125 -1.5 -4.4375q-1.90625 -2.3125 -4.9375 -2.3125q-2.75 0 -4.625 1.84375q-1.859375 1.828125 -2.0625 4.90625zm28.724976 14.015625l-8.9375 -23.5l4.203125 0l5.046875 14.078125q0.8125 2.265625 1.5 4.734375q0.53125 -1.859375 1.484375 -4.46875l5.21875 -14.34375l4.109375 0l-8.90625 23.5l-3.71875 0zm13.0859375 0l12.453125 -32.453125l4.625 0l13.28125 32.453125l-4.890625 0l-3.78125 -9.828125l-13.5625 0l-3.5625 9.828125l-4.5625 0zm9.359375 -13.328125l11.0 0l-3.390625 -8.984375q-1.546875 -4.09375 -2.296875 -6.71875q-0.625 3.109375 -1.75 6.1875l-3.5625 9.515625zm23.92099 13.328125l0 -23.5l3.5625 0l0 3.296875q1.109375 -1.734375 2.9375 -2.78125q1.84375 -1.046875 4.1875 -1.046875q2.625 0 4.28125 1.078125q1.671875 1.078125 2.359375 3.03125q2.796875 -4.109375 7.265625 -4.109375q3.5 0 5.375 1.9375q1.890625 1.9375 1.890625 5.953125l0 16.140625l-3.96875 0l0 -14.8125q0 -2.390625 -0.390625 -3.4375q-0.390625 -1.046875 -1.40625 -1.6875q-1.015625 -0.640625 -2.390625 -0.640625q-2.46875 0 -4.109375 1.65625q-1.640625 1.640625 -1.640625 5.265625l0 13.65625l-3.984375 0l0 -15.265625q0 -2.65625 -0.984375 -3.984375q-0.96875 -1.328125 -3.171875 -1.328125q-1.6875 0 -3.125 0.890625q-1.421875 0.875 -2.0625 2.578125q-0.640625 1.703125 -0.640625 4.921875l0 12.1875l-3.984375 0zm53.852448 -7.5625l4.109375 0.5q-0.96875 3.609375 -3.609375 5.609375q-2.625 1.984375 -6.71875 1.984375q-5.15625 0 -8.1875 -3.171875q-3.015625 -3.1875 -3.015625 -8.90625q0 -5.9375 3.046875 -9.203125q3.0625 -3.28125 7.9375 -3.28125q4.71875 0 7.703125 3.203125q2.984375 3.203125 2.984375 9.03125q0 0.359375 -0.015625 1.0625l-17.53125 0q0.21875 3.875 2.1875 5.9375q1.96875 2.046875 4.90625 2.046875q2.203125 0 3.75 -1.140625q1.546875 -1.15625 2.453125 -3.671875zm-13.078125 -6.453125l13.125 0q-0.265625 -2.953125 -1.5 -4.4375q-1.90625 -2.3125 -4.9375 -2.3125q-2.75 0 -4.625 1.84375q-1.859375 1.828125 -2.0625 4.90625zm38.287476 6.453125l4.109375 0.5q-0.96875 3.609375 -3.609375 5.609375q-2.625 1.984375 -6.71875 1.984375q-5.15625 0 -8.1875 -3.171875q-3.015625 -3.1875 -3.015625 -8.90625q0 -5.9375 3.046875 -9.203125q3.0625 -3.28125 7.9375 -3.28125q4.71875 0 7.703125 3.203125q2.984375 3.203125 2.984375 9.03125q0 0.359375 -0.015625 1.0625l-17.53125 0q0.21875 3.875 2.1875 5.9375q1.96875 2.046875 4.90625 2.046875q2.203125 0 3.75 -1.140625q1.546875 -1.15625 2.453125 -3.671875zm-13.078125 -6.453125l13.125 0q-0.265625 -2.953125 -1.5 -4.4375q-1.90625 -2.3125 -4.9375 -2.3125q-2.75 0 -4.625 1.84375q-1.859375 1.828125 -2.0625 4.90625zm22.193726 14.015625l0 -23.5l3.59375 0l0 3.34375q2.578125 -3.875 7.46875 -3.875q2.125 0 3.90625 0.765625q1.796875 0.75 2.671875 2.0q0.890625 1.234375 1.25 2.9375q0.21875 1.109375 0.21875 3.875l0 14.453125l-3.984375 0l0 -14.296875q0 -2.4375 -0.46875 -3.640625q-0.46875 -1.203125 -1.65625 -1.921875q-1.171875 -0.71875 -2.765625 -0.71875q-2.546875 0 -4.40625 1.609375q-1.84375 1.609375 -1.84375 6.125l0 12.84375l-3.984375 0zm25.58435 0l0 -32.453125l6.46875 0l7.671875 22.984375q1.0625 3.203125 1.5625 4.796875q0.546875 -1.765625 1.71875 -5.203125l7.765625 -22.578125l5.78125 0l0 32.453125l-4.140625 0l0 -27.15625l-9.421875 27.15625l-3.875 0l-9.390625 -27.625l0 27.625l-4.140625 0z" fill-rule="nonzero"/><path fill="#000000" fill-opacity="0.0" d="m278.39896 597.6011l2119.2126 0l0 329.66925l-2119.2126 0z" fill-rule="evenodd"/><path fill="#00b4d8" d="m297.64896 729.4811l0 -91.625l12.125 0l0 37.625l47.625 0l0 -37.625l12.125 0l0 91.625l-12.125 0l0 -43.1875l-47.625 0l0 43.1875l-12.125 0zm136.0625 -21.375l11.625 1.4375q-2.75 10.1875 -10.1875 15.8125q-7.4375 5.625 -19.0 5.625q-14.5625 0 -23.09375 -8.96875q-8.53125 -8.96875 -8.53125 -25.15625q0 -16.75 8.625 -26.0q8.625 -9.25 22.375 -9.25q13.3125 0 21.75 9.0625q8.4375 9.0625 8.4375 25.5q0 1.0 -0.0625 3.0l-49.5 0q0.625 10.9375 6.1875 16.75q5.5625 5.8125 13.875 5.8125q6.1875 0 10.5625 -3.25q4.375 -3.25 6.9375 -10.375zm-36.9375 -18.1875l37.0625 0q-0.75 -8.375 -4.25 -12.5625q-5.375 -6.5 -13.9375 -6.5q-7.75 0 -13.03125 5.1875q-5.28125 5.1875 -5.84375 13.875zm62.4375 39.5625l0 -91.625l11.25 0l0 91.625l-11.25 0zm28.4375 0l0 -91.625l11.25 0l0 91.625l-11.25 0zm24.49997 -33.1875q0 -18.4375 10.25 -27.3125q8.5625 -7.375 20.875 -7.375q13.6875 0 22.375 8.96875q8.6875 8.96875 8.6875 24.78125q0 12.8125 -3.84375 20.15625q-3.84375 7.34375 -11.1875 11.40625q-7.34375 4.0625 -16.03125 4.0625q-13.9375 0 -22.53125 -8.9375q-8.59375 -8.9375 -8.59375 -25.75zm11.5625 0q0 12.75 5.5625 19.09375q5.5625 6.34375 14.0 6.34375q8.375 0 13.9375 -6.375q5.5625 -6.375 5.5625 -19.4375q0 -12.3125 -5.59375 -18.65625q-5.59375 -6.34375 -13.90625 -6.34375q-8.4375 0 -14.0 6.3125q-5.5625 6.3125 -5.5625 19.0625zm111.625 33.1875l-20.3125 -66.375l11.625 0l10.5625 38.3125l3.9375 14.25q0.25 -1.0625 3.4375 -13.6875l10.5625 -38.875l11.5625 0l9.9375 38.5l3.3125 12.6875l3.8125 -12.8125l11.375 -38.375l10.9375 0l-20.75 66.375l-11.6875 0l-10.5625 -39.75l-2.5625 -11.3125l-13.4375 51.0625l-11.75 0zm76.0 -33.1875q0 -18.4375 10.25 -27.3125q8.5625 -7.375 20.875 -7.375q13.6875 0 22.375 8.96875q8.6875 8.96875 8.6875 24.78125q0 12.8125 -3.84375 20.15625q-3.84375 7.34375 -11.1875 11.40625q-7.34375 4.0625 -16.03125 4.0625q-13.9375 0 -22.53125 -8.9375q-8.59375 -8.9375 -8.59375 -25.75zm11.5625 0q0 12.75 5.5625 19.09375q5.5625 6.34375 14.0 6.34375q8.375 0 13.9375 -6.375q5.5625 -6.375 5.5625 -19.4375q0 -12.3125 -5.59375 -18.65625q-5.59375 -6.34375 -13.90625 -6.34375q-8.4375 0 -14.0 6.3125q-5.5625 6.3125 -5.5625 19.0625zm63.6875 33.1875l0 -66.375l10.125 0l0 10.0625q3.875 -7.0625 7.15625 -9.3125q3.28125 -2.25 7.21875 -2.25q5.6875 0 11.5625 3.625l-3.875 10.4375q-4.125 -2.4375 -8.25 -2.4375q-3.6875 0 -6.625 2.21875q-2.9375 2.21875 -4.1875 6.15625q-1.875 6.0 -1.875 13.125l0 34.75l-11.25 0zm42.5 0l0 -91.625l11.25 0l0 91.625l-11.25 0zm71.75 0l0 -8.375q-6.3125 9.875 -18.5625 9.875q-7.9375 0 -14.59375 -4.375q-6.65625 -4.375 -10.3125 -12.21875q-3.65625 -7.84375 -3.65625 -18.03125q0 -9.9375 3.3125 -18.03125q3.3125 -8.09375 9.9375 -12.40625q6.625 -4.3125 14.8125 -4.3125q6.0 0 10.6875 2.53125q4.6875 2.53125 7.625 6.59375l0 -32.875l11.1875 0l0 91.625l-10.4375 0zm-35.5625 -33.125q0 12.75 5.375 19.0625q5.375 6.3125 12.6875 6.3125q7.375 0 12.53125 -6.03125q5.15625 -6.03125 5.15625 -18.40625q0 -13.625 -5.25 -20.0q-5.25 -6.375 -12.9375 -6.375q-7.5 0 -12.53125 6.125q-5.03125 6.125 -5.03125 19.3125zm69.6875 10.375l-3.4375 -48.5625l0 -20.3125l13.9375 0l0 20.3125l-3.25 48.5625l-7.25 0zm-2.9375 22.75l0 -12.8125l12.9375 0l0 12.8125l-12.9375 0z" fill-rule="nonzero"/><path fill="#00b4d8" d="m299.33646 883.08105l0 -91.625l12.125 0l0 91.625l-12.125 0zm31.375 -79.5l0 -13.0625l12.0625 0l0 10.3125q0 8.375 -1.9375 12.0625q-2.6875 5.0625 -8.375 7.625l-2.75 -4.4375q3.375 -1.375 5.03125 -4.34375q1.65625 -2.96875 1.84375 -8.15625l-5.875 0zm29.125 79.5l0 -66.375l10.0625 0l0 9.3125q3.125 -4.875 8.3125 -7.84375q5.1875 -2.96875 11.8125 -2.96875q7.375 0 12.09375 3.0625q4.71875 3.0625 6.65625 8.5625q7.875 -11.625 20.5 -11.625q9.875 0 15.1875 5.46875q5.3125 5.46875 5.3125 16.84375l0 45.5625l-11.1875 0l0 -41.8125q0 -6.75 -1.09375 -9.71875q-1.09375 -2.96875 -3.96875 -4.78125q-2.875 -1.8125 -6.75 -1.8125q-7.0 0 -11.625 4.65625q-4.625 4.65625 -4.625 14.90625l0 38.5625l-11.25 0l0 -43.125q0 -7.5 -2.75 -11.25q-2.75 -3.75 -9.0 -3.75q-4.75 0 -8.78125 2.5q-4.03125 2.5 -5.84375 7.3125q-1.8125 4.8125 -1.8125 13.875l0 34.4375l-11.25 0zm140.75 -40.0625l0 -10.5l60.68747 -25.625l0 11.1875l-48.125 19.75l48.125 19.9375l0 11.1875l-60.68747 -25.9375zm77.62497 40.0625l0 -91.625l31.5625 0q10.6875 0 16.3125 1.3125q7.875 1.8125 13.4375 6.5625q7.25 6.125 10.84375 15.65625q3.59375 9.53125 3.59375 21.78125q0 10.4375 -2.4375 18.5q-2.4375 8.0625 -6.25 13.34375q-3.8125 5.28125 -8.34375 8.3125q-4.53125 3.03125 -10.9375 4.59375q-6.40625 1.5625 -14.71875 1.5625l-33.0625 0zm12.125 -10.8125l19.5625 0q9.0625 0 14.21875 -1.6875q5.15625 -1.6875 8.21875 -4.75q4.3125 -4.3125 6.71875 -11.59375q2.40625 -7.28125 2.40625 -17.65625q0 -14.375 -4.71875 -22.09375q-4.71875 -7.71875 -11.46875 -10.34375q-4.875 -1.875 -15.6875 -1.875l-19.25 0l0 70.0zm124.3125 -10.5625l11.625 1.4375q-2.75 10.1875 -10.1875 15.8125q-7.4375 5.625 -19.0 5.625q-14.5625 0 -23.09375 -8.96875q-8.53125 -8.96875 -8.53125 -25.15625q0 -16.75 8.625 -26.0q8.625 -9.25 22.375 -9.25q13.3125 0 21.75 9.0625q8.4375 9.0625 8.4375 25.5q0 1.0 -0.0625 3.0l-49.5 0q0.625 10.9375 6.1875 16.75q5.5625 5.8125 13.875 5.8125q6.1875 0 10.5625 -3.25q4.375 -3.25 6.9375 -10.375zm-36.9375 -18.1875l37.0625 0q-0.75 -8.375 -4.25 -12.5625q-5.375 -6.5 -13.9375 -6.5q-7.75 0 -13.03125 5.1875q-5.28125 5.1875 -5.84375 13.875zm81.125 39.5625l-25.25 -66.375l11.875 0l14.25 39.75q2.3125 6.4375 4.25 13.375q1.5 -5.25 4.1875 -12.625l14.75 -40.5l11.5625 0l-25.125 66.375l-10.5 0zm35.1875 25.4375l0 -8.125l74.5625 0l0 8.125l-74.5625 0zm72.9375 -25.4375l35.1875 -91.625l13.0625 0l37.5 91.625l-13.8125 0l-10.6875 -27.75l-38.3125 0l-10.0625 27.75l-12.875 0zm26.4375 -37.625l31.0625 0l-9.5625 -25.375q-4.375 -11.5625 -6.5 -19.0q-1.75 8.8125 -4.9375 17.5l-10.0625 26.875zm67.5625 37.625l0 -66.375l10.0625 0l0 9.3125q3.125 -4.875 8.3125 -7.84375q5.1875 -2.96875 11.8125 -2.96875q7.375 0 12.09375 3.0625q4.71875 3.0625 6.65625 8.5625q7.875 -11.625 20.5 -11.625q9.875 0 15.1875 5.46875q5.3125 5.46875 5.3125 16.84375l0 45.5625l-11.1875 0l0 -41.8125q0 -6.75 -1.09375 -9.71875q-1.09375 -2.96875 -3.96875 -4.78125q-2.875 -1.8125 -6.75 -1.8125q-7.0 0 -11.625 4.65625q-4.625 4.65625 -4.625 14.90625l0 38.5625l-11.25 0l0 -43.125q0 -7.5 -2.75 -11.25q-2.75 -3.75 -9.0 -3.75q-4.75 0 -8.78125 2.5q-4.03125 2.5 -5.84375 7.3125q-1.8125 4.8125 -1.8125 13.875l0 34.4375l-11.25 0zm152.0625 -21.375l11.625 1.4375q-2.75 10.1875 -10.1875 15.8125q-7.4375 5.625 -19.0 5.625q-14.5625 0 -23.09375 -8.96875q-8.53125 -8.96875 -8.53125 -25.15625q0 -16.75 8.625 -26.0q8.625 -9.25 22.375 -9.25q13.3125 0 21.75 9.0625q8.4375 9.0625 8.4375 25.5q0 1.0 -0.0625 3.0l-49.5 0q0.625 10.9375 6.1875 16.75q5.5625 5.8125 13.875 5.8125q6.1875 0 10.5625 -3.25q4.375 -3.25 6.9375 -10.375zm-36.9375 -18.1875l37.0625 0q-0.75 -8.375 -4.25 -12.5625q-5.375 -6.5 -13.9375 -6.5q-7.75 0 -13.03125 5.1875q-5.28125 5.1875 -5.84375 13.875zm108.125 18.1875l11.625 1.4375q-2.75 10.1875 -10.1875 15.8125q-7.4375 5.625 -19.0 5.625q-14.5625 0 -23.09375 -8.96875q-8.53125 -8.96875 -8.53125 -25.15625q0 -16.75 8.625 -26.0q8.625 -9.25 22.375 -9.25q13.3125 0 21.75 9.0625q8.4375 9.0625 8.4375 25.5q0 1.0 -0.0625 3.0l-49.5 0q0.625 10.9375 6.1875 16.75q5.5625 5.8125 13.875 5.8125q6.1875 0 10.5625 -3.25q4.375 -3.25 6.9375 -10.375zm-36.9375 -18.1875l37.0625 0q-0.75 -8.375 -4.25 -12.5625q-5.375 -6.5 -13.9375 -6.5q-7.75 0 -13.03125 5.1875q-5.28125 5.1875 -5.84375 13.875zm62.6875 39.5625l0 -66.375l10.125 0l0 9.4375q7.3125 -10.9375 21.125 -10.9375q6.0 0 11.03125 2.15625q5.03125 2.15625 7.53125 5.65625q2.5 3.5 3.5 8.3125q0.625 3.125 0.625 10.9375l0 40.8125l-11.25 0l0 -40.375q0 -6.875 -1.3125 -10.28125q-1.3125 -3.40625 -4.65625 -5.4375q-3.34375 -2.03125 -7.84375 -2.03125q-7.1875 0 -12.40625 4.5625q-5.21875 4.5625 -5.21875 17.3125l0 36.25l-11.25 0zm130.4375 -40.0625l-60.6875 25.9375l0 -11.1875l48.0625 -19.9375l-48.0625 -19.75l0 -11.1875l60.6875 25.625l0 10.5z" fill-rule="nonzero"/><path fill="#000000" fill-opacity="0.0" d="m2796.0 194.39896l285.6062 0l0 164.81888l-285.6062 0z" fill-rule="evenodd"/><path fill="#00b4d8" d="m2806.7969 232.59583l3.578125 -0.3125q0.25 2.15625 1.171875 3.53125q0.9375 1.375 2.890625 2.234375q1.953125 0.84375 4.390625 0.84375q2.171875 0 3.828125 -0.640625q1.65625 -0.65625 2.46875 -1.78125q0.8125 -1.125 0.8125 -2.453125q0 -1.34375 -0.78125 -2.34375q-0.78125 -1.015625 -2.578125 -1.6875q-1.15625 -0.453125 -5.109375 -1.390625q-3.9375 -0.953125 -5.515625 -1.796875q-2.046875 -1.078125 -3.0625 -2.671875q-1.0 -1.59375 -1.0 -3.5625q0 -2.171875 1.234375 -4.046875q1.234375 -1.890625 3.59375 -2.859375q2.359375 -0.984375 5.25 -0.984375q3.1875 0 5.609375 1.03125q2.4375 1.015625 3.75 3.015625q1.3125 1.984375 1.40625 4.515625l-3.640625 0.265625q-0.28125 -2.71875 -1.984375 -4.09375q-1.6875 -1.390625 -4.984375 -1.390625q-3.4375 0 -5.015625 1.265625q-1.5625 1.25 -1.5625 3.03125q0 1.546875 1.109375 2.53125q1.09375 1.0 5.703125 2.046875q4.625 1.046875 6.34375 1.828125q2.5 1.15625 3.6875 2.921875q1.203125 1.765625 1.203125 4.0625q0 2.296875 -1.3125 4.3125q-1.3125 2.015625 -3.765625 3.140625q-2.4375 1.125 -5.515625 1.125q-3.875 0 -6.515625 -1.125q-2.625 -1.140625 -4.125 -3.40625q-1.484375 -2.28125 -1.5625 -5.15625zm26.210938 -1.171875q0 -5.765625 3.203125 -8.53125q2.671875 -2.3125 6.53125 -2.3125q4.265625 0 6.984375 2.8125q2.71875 2.796875 2.71875 7.734375q0 4.015625 -1.203125 6.3125q-1.203125 2.28125 -3.5 3.5625q-2.296875 1.265625 -5.0 1.265625q-4.359375 0 -7.046875 -2.796875q-2.6875 -2.796875 -2.6875 -8.046875zm3.609375 0q0 3.984375 1.734375 5.96875q1.75 1.984375 4.390625 1.984375q2.609375 0 4.34375 -1.984375q1.75 -2.0 1.75 -6.078125q0 -3.859375 -1.75 -5.828125q-1.75 -1.984375 -4.34375 -1.984375q-2.640625 0 -4.390625 1.96875q-1.734375 1.96875 -1.734375 5.953125zm20.792969 10.375l0 -18.015625l-3.109375 0l0 -2.734375l3.109375 0l0 -2.203125q0 -2.09375 0.359375 -3.109375q0.515625 -1.359375 1.796875 -2.203125q1.28125 -0.859375 3.578125 -0.859375q1.484375 0 3.28125 0.359375l-0.53125 3.0625q-1.09375 -0.203125 -2.0625 -0.203125q-1.609375 0 -2.28125 0.6875q-0.65625 0.6875 -0.65625 2.5625l0 1.90625l4.046875 0l0 2.734375l-4.046875 0l0 18.015625l-3.484375 0zm17.941406 -3.140625l0.515625 3.09375q-1.484375 0.328125 -2.65625 0.328125q-1.921875 0 -2.984375 -0.609375q-1.046875 -0.609375 -1.484375 -1.59375q-0.421875 -0.984375 -0.421875 -4.15625l0 -11.9375l-2.578125 0l0 -2.734375l2.578125 0l0 -5.125l3.5 -2.109375l0 7.234375l3.53125 0l0 2.734375l-3.53125 0l0 12.140625q0 1.5 0.1875 1.9375q0.1875 0.421875 0.59375 0.671875q0.421875 0.25 1.203125 0.25q0.59375 0 1.546875 -0.125zm7.2695312 3.140625l-6.34375 -20.75l3.625 0l3.296875 11.984375l1.234375 4.453125q0.078125 -0.34375 1.078125 -4.28125l3.296875 -12.15625l3.609375 0l3.109375 12.03125l1.03125 3.96875l1.203125 -4.0l3.546875 -12.0l3.421875 0l-6.484375 20.75l-3.65625 0l-3.296875 -12.421875l-0.796875 -3.53125l-4.203125 15.953125l-3.671875 0zm38.589844 -2.5625q-1.953125 1.65625 -3.765625 2.34375q-1.796875 0.6875 -3.875 0.6875q-3.40625 0 -5.25 -1.671875q-1.828125 -1.671875 -1.828125 -4.265625q0 -1.53125 0.6875 -2.78125q0.6875 -1.265625 1.8125 -2.015625q1.125 -0.765625 2.53125 -1.15625q1.03125 -0.28125 3.125 -0.53125q4.265625 -0.515625 6.265625 -1.21875q0.03125 -0.71875 0.03125 -0.90625q0 -2.15625 -1.0 -3.03125q-1.34375 -1.1875 -4.0 -1.1875q-2.484375 0 -3.671875 0.875q-1.171875 0.859375 -1.75 3.0625l-3.4375 -0.46875q0.46875 -2.203125 1.546875 -3.5625q1.078125 -1.359375 3.109375 -2.09375q2.03125 -0.734375 4.703125 -0.734375q2.65625 0 4.3125 0.625q1.671875 0.625 2.453125 1.578125q0.78125 0.953125 1.09375 2.390625q0.171875 0.90625 0.171875 3.25l0 4.6875q0 4.890625 0.21875 6.203125q0.234375 1.296875 0.890625 2.484375l-3.671875 0q-0.546875 -1.09375 -0.703125 -2.5625zm-0.296875 -7.84375q-1.90625 0.78125 -5.734375 1.328125q-2.171875 0.3125 -3.078125 0.703125q-0.890625 0.390625 -1.375 1.140625q-0.484375 0.75 -0.484375 1.671875q0 1.40625 1.0625 2.34375q1.0625 0.9375 3.109375 0.9375q2.03125 0 3.609375 -0.890625q1.59375 -0.890625 2.328125 -2.4375q0.5625 -1.1875 0.5625 -3.515625l0 -1.28125zm8.964844 10.40625l0 -20.75l3.171875 0l0 3.15625q1.203125 -2.21875 2.234375 -2.921875q1.03125 -0.703125 2.25 -0.703125q1.78125 0 3.625 1.140625l-1.21875 3.265625q-1.28125 -0.765625 -2.578125 -0.765625q-1.15625 0 -2.078125 0.703125q-0.90625 0.6875 -1.296875 1.90625q-0.59375 1.875 -0.59375 4.109375l0 10.859375l-3.515625 0zm27.570312 -6.6875l3.625 0.453125q-0.859375 3.1875 -3.1875 4.953125q-2.3125 1.75 -5.9375 1.75q-4.546875 0 -7.21875 -2.796875q-2.65625 -2.8125 -2.65625 -7.875q0 -5.234375 2.6875 -8.125q2.703125 -2.890625 7.0 -2.890625q4.15625 0 6.796875 2.84375q2.640625 2.828125 2.640625 7.96875q0 0.3125 -0.03125 0.9375l-15.46875 0q0.203125 3.40625 1.9375 5.234375q1.734375 1.8125 4.34375 1.8125q1.921875 0 3.28125 -1.015625q1.375 -1.015625 2.1875 -3.25zm-11.546875 -5.671875l11.578125 0q-0.234375 -2.625 -1.328125 -3.9375q-1.671875 -2.03125 -4.359375 -2.03125q-2.421875 0 -4.078125 1.625q-1.640625 1.625 -1.8125 4.34375z" fill-rule="nonzero"/><path fill="#00b4d8" d="m2808.1719 289.79895l0 -28.640625l20.703125 0l0 3.390625l-16.921875 0l0 8.765625l15.84375 0l0 3.359375l-15.84375 0l0 9.75l17.578125 0l0 3.375l-21.359375 0zm26.148438 0l0 -20.75l3.15625 0l0 2.953125q2.296875 -3.421875 6.609375 -3.421875q1.875 0 3.4375 0.6875q1.578125 0.671875 2.359375 1.765625q0.78125 1.09375 1.09375 2.59375q0.203125 0.96875 0.203125 3.421875l0 12.75l-3.515625 0l0 -12.625q0 -2.140625 -0.421875 -3.203125q-0.40625 -1.0625 -1.453125 -1.703125q-1.046875 -0.640625 -2.453125 -0.640625q-2.234375 0 -3.875 1.4375q-1.625 1.421875 -1.625 5.40625l0 11.328125l-3.515625 0zm21.605469 1.71875l3.40625 0.515625q0.21875 1.578125 1.203125 2.296875q1.296875 0.984375 3.5625 0.984375q2.453125 0 3.78125 -0.984375q1.328125 -0.96875 1.796875 -2.734375q0.265625 -1.078125 0.25 -4.515625q-2.3125 2.71875 -5.75 2.71875q-4.265625 0 -6.609375 -3.078125q-2.34375 -3.09375 -2.34375 -7.40625q0 -2.96875 1.0625 -5.484375q1.078125 -2.515625 3.109375 -3.875q2.046875 -1.375 4.8125 -1.375q3.671875 0 6.046875 2.96875l0 -2.5l3.25 0l0 17.9375q0 4.84375 -1.0 6.859375q-0.984375 2.03125 -3.125 3.203125q-2.125 1.171875 -5.25 1.171875q-3.71875 0 -6.0 -1.671875q-2.28125 -1.671875 -2.203125 -5.03125zm2.90625 -12.46875q0 4.09375 1.609375 5.96875q1.625 1.875 4.078125 1.875q2.421875 0 4.0625 -1.859375q1.640625 -1.875 1.640625 -5.859375q0 -3.8125 -1.703125 -5.734375q-1.6875 -1.9375 -4.0625 -1.9375q-2.34375 0 -3.984375 1.90625q-1.640625 1.890625 -1.640625 5.640625zm19.996094 -13.84375l0 -4.046875l3.515625 0l0 4.046875l-3.515625 0zm0 24.59375l0 -20.75l3.515625 0l0 20.75l-3.515625 0zm8.871094 0l0 -20.75l3.15625 0l0 2.953125q2.296875 -3.421875 6.609375 -3.421875q1.875 0 3.4375 0.6875q1.578125 0.671875 2.359375 1.765625q0.78125 1.09375 1.09375 2.59375q0.203125 0.96875 0.203125 3.421875l0 12.75l-3.515625 0l0 -12.625q0 -2.140625 -0.421875 -3.203125q-0.40625 -1.0625 -1.453125 -1.703125q-1.046875 -0.640625 -2.453125 -0.640625q-2.234375 0 -3.875 1.4375q-1.625 1.421875 -1.625 5.40625l0 11.328125l-3.515625 0zm36.44922 -6.6875l3.625 0.453125q-0.859375 3.1875 -3.1875 4.953125q-2.3125 1.75 -5.9375 1.75q-4.546875 0 -7.21875 -2.796875q-2.65625 -2.8125 -2.65625 -7.875q0 -5.234375 2.6875 -8.125q2.703125 -2.890625 7.0 -2.890625q4.15625 0 6.796875 2.84375q2.640625 2.828125 2.640625 7.96875q0 0.3125 -0.03125 0.9375l-15.46875 0q0.203125 3.40625 1.9375 5.234375q1.734375 1.8125 4.34375 1.8125q1.921875 0 3.28125 -1.015625q1.375 -1.015625 2.1875 -3.25zm-11.546875 -5.671875l11.578125 0q-0.234375 -2.625 -1.328125 -3.9375q-1.671875 -2.03125 -4.359375 -2.03125q-2.421875 0 -4.078125 1.625q-1.640625 1.625 -1.8125 4.34375zm33.79297 5.671875l3.625 0.453125q-0.859375 3.1875 -3.1875 4.953125q-2.3125 1.75 -5.9375 1.75q-4.546875 0 -7.21875 -2.796875q-2.65625 -2.8125 -2.65625 -7.875q0 -5.234375 2.6875 -8.125q2.703125 -2.890625 7.0 -2.890625q4.15625 0 6.796875 2.84375q2.640625 2.828125 2.640625 7.96875q0 0.3125 -0.03125 0.9375l-15.46875 0q0.203125 3.40625 1.9375 5.234375q1.734375 1.8125 4.34375 1.8125q1.921875 0 3.28125 -1.015625q1.375 -1.015625 2.1875 -3.25zm-11.546875 -5.671875l11.578125 0q-0.234375 -2.625 -1.328125 -3.9375q-1.671875 -2.03125 -4.359375 -2.03125q-2.421875 0 -4.078125 1.625q-1.640625 1.625 -1.8125 4.34375zm19.542969 12.359375l0 -20.75l3.171875 0l0 3.15625q1.203125 -2.21875 2.234375 -2.921875q1.03125 -0.703125 2.25 -0.703125q1.78125 0 3.625 1.140625l-1.21875 3.265625q-1.28125 -0.765625 -2.578125 -0.765625q-1.15625 0 -2.078125 0.703125q-0.90625 0.6875 -1.296875 1.90625q-0.59375 1.875 -0.59375 4.109375l0 10.859375l-3.515625 0z" fill-rule="nonzero"/><path fill="#00b4d8" d="m2808.1719 337.79895l0 -28.640625l20.703125 0l0 3.390625l-16.921875 0l0 8.765625l15.84375 0l0 3.359375l-15.84375 0l0 9.75l17.578125 0l0 3.375l-21.359375 0zm23.804688 0l7.578125 -10.78125l-7.015625 -9.96875l4.390625 0l3.1875 4.875q0.90625 1.375 1.453125 2.3125q0.859375 -1.28125 1.578125 -2.28125l3.5 -4.90625l4.1875 0l-7.15625 9.765625l7.703125 10.984375l-4.3125 0l-4.25 -6.453125l-1.140625 -1.734375l-5.453125 8.1875l-4.25 0zm30.015625 -3.140625l0.515625 3.09375q-1.484375 0.328125 -2.65625 0.328125q-1.921875 0 -2.984375 -0.609375q-1.046875 -0.609375 -1.484375 -1.59375q-0.421875 -0.984375 -0.421875 -4.15625l0 -11.9375l-2.578125 0l0 -2.734375l2.578125 0l0 -5.125l3.5 -2.109375l0 7.234375l3.53125 0l0 2.734375l-3.53125 0l0 12.140625q0 1.5 0.1875 1.9375q0.1875 0.421875 0.59375 0.671875q0.421875 0.25 1.203125 0.25q0.59375 0 1.546875 -0.125zm3.3945312 3.140625l0 -20.75l3.171875 0l0 3.15625q1.203125 -2.21875 2.234375 -2.921875q1.03125 -0.703125 2.25 -0.703125q1.78125 0 3.625 1.140625l-1.21875 3.265625q-1.28125 -0.765625 -2.578125 -0.765625q-1.15625 0 -2.078125 0.703125q-0.90625 0.6875 -1.296875 1.90625q-0.59375 1.875 -0.59375 4.109375l0 10.859375l-3.515625 0zm26.898438 -2.5625q-1.953125 1.65625 -3.765625 2.34375q-1.796875 0.6875 -3.875 0.6875q-3.40625 0 -5.25 -1.671875q-1.828125 -1.671875 -1.828125 -4.265625q0 -1.53125 0.6875 -2.78125q0.6875 -1.265625 1.8125 -2.015625q1.125 -0.765625 2.53125 -1.15625q1.03125 -0.28125 3.125 -0.53125q4.265625 -0.515625 6.265625 -1.21875q0.03125 -0.71875 0.03125 -0.90625q0 -2.15625 -1.0 -3.03125q-1.34375 -1.1875 -4.0 -1.1875q-2.484375 0 -3.671875 0.875q-1.171875 0.859375 -1.75 3.0625l-3.4375 -0.46875q0.46875 -2.203125 1.546875 -3.5625q1.078125 -1.359375 3.109375 -2.09375q2.03125 -0.734375 4.703125 -0.734375q2.65625 0 4.3125 0.625q1.671875 0.625 2.453125 1.578125q0.78125 0.953125 1.09375 2.390625q0.171875 0.90625 0.171875 3.25l0 4.6875q0 4.890625 0.21875 6.203125q0.234375 1.296875 0.890625 2.484375l-3.671875 0q-0.546875 -1.09375 -0.703125 -2.5625zm-0.296875 -7.84375q-1.90625 0.78125 -5.734375 1.328125q-2.171875 0.3125 -3.078125 0.703125q-0.890625 0.390625 -1.375 1.140625q-0.484375 0.75 -0.484375 1.671875q0 1.40625 1.0625 2.34375q1.0625 0.9375 3.109375 0.9375q2.03125 0 3.609375 -0.890625q1.59375 -0.890625 2.328125 -2.4375q0.5625 -1.1875 0.5625 -3.515625l0 -1.28125zm7.6992188 0.03125q0 -5.765625 3.203125 -8.53125q2.671875 -2.3125 6.53125 -2.3125q4.265625 0 6.984375 2.8125q2.71875 2.796875 2.71875 7.734375q0 4.015625 -1.203125 6.3125q-1.203125 2.28125 -3.5 3.5625q-2.296875 1.265625 -5.0 1.265625q-4.359375 0 -7.046875 -2.796875q-2.6875 -2.796875 -2.6875 -8.046875zm3.609375 0q0 3.984375 1.734375 5.96875q1.75 1.984375 4.390625 1.984375q2.609375 0 4.34375 -1.984375q1.75 -2.0 1.75 -6.078125q0 -3.859375 -1.75 -5.828125q-1.75 -1.984375 -4.34375 -1.984375q-2.640625 0 -4.390625 1.96875q-1.734375 1.96875 -1.734375 5.953125zm19.902344 10.375l0 -20.75l3.171875 0l0 3.15625q1.203125 -2.21875 2.234375 -2.921875q1.03125 -0.703125 2.25 -0.703125q1.78125 0 3.625 1.140625l-1.21875 3.265625q-1.28125 -0.765625 -2.578125 -0.765625q-1.15625 0 -2.078125 0.703125q-0.90625 0.6875 -1.296875 1.90625q-0.59375 1.875 -0.59375 4.109375l0 10.859375l-3.515625 0zm26.820312 0l0 -2.625q-1.96875 3.09375 -5.796875 3.09375q-2.484375 0 -4.5625 -1.359375q-2.078125 -1.375 -3.21875 -3.828125q-1.140625 -2.453125 -1.140625 -5.640625q0 -3.09375 1.03125 -5.625q1.03125 -2.53125 3.09375 -3.875q2.078125 -1.359375 4.640625 -1.359375q1.875 0 3.328125 0.796875q1.46875 0.796875 2.390625 2.0625l0 -10.28125l3.5 0l0 28.640625l-3.265625 0zm-11.109375 -10.359375q0 3.984375 1.671875 5.96875q1.6875 1.96875 3.96875 1.96875q2.3125 0 3.921875 -1.875q1.609375 -1.890625 1.609375 -5.765625q0 -4.25 -1.640625 -6.234375q-1.640625 -2.0 -4.046875 -2.0q-2.34375 0 -3.921875 1.921875q-1.5625 1.90625 -1.5625 6.015625zm19.917969 -14.234375l0 -4.046875l3.515625 0l0 4.046875l-3.515625 0zm0 24.59375l0 -20.75l3.515625 0l0 20.75l-3.515625 0zm8.871094 0l0 -20.75l3.15625 0l0 2.953125q2.296875 -3.421875 6.609375 -3.421875q1.875 0 3.4375 0.6875q1.578125 0.671875 2.359375 1.765625q0.78125 1.09375 1.09375 2.59375q0.203125 0.96875 0.203125 3.421875l0 12.75l-3.515625 0l0 -12.625q0 -2.140625 -0.421875 -3.203125q-0.40625 -1.0625 -1.453125 -1.703125q-1.046875 -0.640625 -2.453125 -0.640625q-2.234375 0 -3.875 1.4375q-1.625 1.421875 -1.625 5.40625l0 11.328125l-3.515625 0zm35.777344 -2.5625q-1.953125 1.65625 -3.765625 2.34375q-1.796875 0.6875 -3.875 0.6875q-3.40625 0 -5.25 -1.671875q-1.828125 -1.671875 -1.828125 -4.265625q0 -1.53125 0.6875 -2.78125q0.6875 -1.265625 1.8125 -2.015625q1.125 -0.765625 2.53125 -1.15625q1.03125 -0.28125 3.125 -0.53125q4.265625 -0.515625 6.265625 -1.21875q0.03125 -0.71875 0.03125 -0.90625q0 -2.15625 -1.0 -3.03125q-1.34375 -1.1875 -4.0 -1.1875q-2.484375 0 -3.671875 0.875q-1.171875 0.859375 -1.75 3.0625l-3.4375 -0.46875q0.46875 -2.203125 1.546875 -3.5625q1.078125 -1.359375 3.109375 -2.09375q2.03125 -0.734375 4.703125 -0.734375q2.65625 0 4.3125 0.625q1.671875 0.625 2.453125 1.578125q0.78125 0.953125 1.09375 2.390625q0.171875 0.90625 0.171875 3.25l0 4.6875q0 4.890625 0.21875 6.203125q0.234375 1.296875 0.890625 2.484375l-3.671875 0q-0.546875 -1.09375 -0.703125 -2.5625zm-0.296875 -7.84375q-1.90625 0.78125 -5.734375 1.328125q-2.171875 0.3125 -3.078125 0.703125q-0.890625 0.390625 -1.375 1.140625q-0.484375 0.75 -0.484375 1.671875q0 1.40625 1.0625 2.34375q1.0625 0.9375 3.109375 0.9375q2.03125 0 3.609375 -0.890625q1.59375 -0.890625 2.328125 -2.4375q0.5625 -1.1875 0.5625 -3.515625l0 -1.28125zm9.027344 -14.1875l0 -4.046875l3.515625 0l0 4.046875l-3.515625 0zm0 24.59375l0 -20.75l3.515625 0l0 20.75l-3.515625 0zm8.824219 0l0 -20.75l3.171875 0l0 3.15625q1.203125 -2.21875 2.234375 -2.921875q1.03125 -0.703125 2.25 -0.703125q1.78125 0 3.625 1.140625l-1.21875 3.265625q-1.28125 -0.765625 -2.578125 -0.765625q-1.15625 0 -2.078125 0.703125q-0.90625 0.6875 -1.296875 1.90625q-0.59375 1.875 -0.59375 4.109375l0 10.859375l-3.515625 0zm27.570312 -6.6875l3.625 0.453125q-0.859375 3.1875 -3.1875 4.953125q-2.3125 1.75 -5.9375 1.75q-4.546875 0 -7.21875 -2.796875q-2.65625 -2.8125 -2.65625 -7.875q0 -5.234375 2.6875 -8.125q2.703125 -2.890625 7.0 -2.890625q4.15625 0 6.796875 2.84375q2.640625 2.828125 2.640625 7.96875q0 0.3125 -0.03125 0.9375l-15.46875 0q0.203125 3.40625 1.9375 5.234375q1.734375 1.8125 4.34375 1.8125q1.921875 0 3.28125 -1.015625q1.375 -1.015625 2.1875 -3.25zm-11.546875 -5.671875l11.578125 0q-0.234375 -2.625 -1.328125 -3.9375q-1.671875 -2.03125 -4.359375 -2.03125q-2.421875 0 -4.078125 1.625q-1.640625 1.625 -1.8125 4.34375zm21.464844 5.25l-1.078125 -15.171875l0 -6.359375l4.359375 0l0 6.359375l-1.015625 15.171875l-2.265625 0zm-0.921875 7.109375l0 -4.0l4.046875 0l0 4.0l-4.046875 0z" fill-rule="nonzero"/><path fill="#000000" fill-opacity="0.0" d="m2800.8005 1430.3989l264.0 0l0 116.346436l-264.0 0z" fill-rule="evenodd"/><path fill="#00b4d8" d="m2860.738 1477.799l0 -28.640625l3.78125 0l0 25.265625l14.109375 0l0 3.375l-17.890625 0zm36.152344 -6.6875l3.625 0.453125q-0.859375 3.1875 -3.1875 4.953125q-2.3125 1.75 -5.9375 1.75q-4.546875 0 -7.21875 -2.796875q-2.65625 -2.8125 -2.65625 -7.875q0 -5.234375 2.6875 -8.125q2.703125 -2.890625 7.0 -2.890625q4.15625 0 6.796875 2.84375q2.640625 2.828125 2.640625 7.96875q0 0.3125 -0.03125 0.9375l-15.46875 0q0.203125 3.40625 1.9375 5.234375q1.734375 1.8125 4.34375 1.8125q1.921875 0 3.28125 -1.015625q1.375 -1.015625 2.1875 -3.25zm-11.546875 -5.671875l11.578125 0q-0.234375 -2.625 -1.328125 -3.9375q-1.671875 -2.03125 -4.359375 -2.03125q-2.421875 0 -4.078125 1.625q-1.640625 1.625 -1.8125 4.34375zm27.261719 9.21875l0.515625 3.09375q-1.484375 0.328125 -2.65625 0.328125q-1.921875 0 -2.984375 -0.609375q-1.046875 -0.609375 -1.484375 -1.59375q-0.421875 -0.984375 -0.421875 -4.15625l0 -11.9375l-2.578125 0l0 -2.734375l2.578125 0l0 -5.125l3.5 -2.109375l0 7.234375l3.53125 0l0 2.734375l-3.53125 0l0 12.140625q0 1.5 0.1875 1.9375q0.1875 0.421875 0.59375 0.671875q0.421875 0.25 1.203125 0.25q0.59375 0 1.546875 -0.125zm3.2226562 -21.703125l0 -4.078125l3.765625 0l0 3.21875q0 2.609375 -0.59375 3.765625q-0.84375 1.578125 -2.625 2.390625l-0.859375 -1.390625q1.0625 -0.4375 1.578125 -1.359375q0.515625 -0.921875 0.578125 -2.546875l-1.84375 0zm6.9765625 18.65625l3.46875 -0.546875q0.296875 2.078125 1.625 3.203125q1.34375 1.109375 3.75 1.109375q2.421875 0 3.59375 -0.984375q1.171875 -0.984375 1.171875 -2.3125q0 -1.203125 -1.03125 -1.875q-0.71875 -0.46875 -3.59375 -1.203125q-3.875 -0.96875 -5.375 -1.671875q-1.484375 -0.71875 -2.265625 -1.984375q-0.765625 -1.265625 -0.765625 -2.78125q0 -1.390625 0.640625 -2.5625q0.640625 -1.1875 1.734375 -1.96875q0.8125 -0.609375 2.21875 -1.03125q1.421875 -0.421875 3.046875 -0.421875q2.4375 0 4.28125 0.703125q1.859375 0.703125 2.734375 1.90625q0.875 1.203125 1.203125 3.21875l-3.4375 0.46875q-0.234375 -1.609375 -1.359375 -2.5q-1.109375 -0.90625 -3.171875 -0.90625q-2.421875 0 -3.453125 0.8125q-1.03125 0.796875 -1.03125 1.875q0 0.671875 0.421875 1.21875q0.4375 0.578125 1.359375 0.9375q0.515625 0.203125 3.09375 0.90625q3.734375 1.0 5.203125 1.640625q1.484375 0.625 2.3125 1.84375q0.84375 1.203125 0.84375 3.0q0 1.75 -1.03125 3.3125q-1.015625 1.546875 -2.953125 2.40625q-1.921875 0.84375 -4.375 0.84375q-4.03125 0 -6.15625 -1.671875q-2.125 -1.6875 -2.703125 -4.984375z" fill-rule="nonzero"/><path fill="#00b4d8" d="m2881.3162 1515.7521l3.796875 0.96875q-1.203125 4.65625 -4.296875 7.109375q-3.09375 2.453125 -7.5625 2.453125q-4.625 0 -7.53125 -1.875q-2.90625 -1.890625 -4.421875 -5.46875q-1.5 -3.578125 -1.5 -7.671875q0 -4.46875 1.703125 -7.796875q1.703125 -3.34375 4.859375 -5.0625q3.15625 -1.734375 6.953125 -1.734375q4.296875 0 7.21875 2.1875q2.9375 2.1875 4.078125 6.15625l-3.71875 0.875q-1.0 -3.125 -2.90625 -4.546875q-1.890625 -1.421875 -4.75 -1.421875q-3.3125 0 -5.53125 1.578125q-2.203125 1.578125 -3.109375 4.25q-0.890625 2.65625 -0.890625 5.5q0 3.640625 1.0625 6.375q1.0625 2.71875 3.296875 4.078125q2.25 1.34375 4.875 1.34375q3.1875 0 5.390625 -1.828125q2.203125 -1.84375 2.984375 -5.46875zm6.6992188 -0.328125q0 -5.765625 3.203125 -8.53125q2.671875 -2.3125 6.53125 -2.3125q4.265625 0 6.984375 2.8125q2.71875 2.796875 2.71875 7.734375q0 4.015625 -1.203125 6.3125q-1.203125 2.28125 -3.5 3.5625q-2.296875 1.265625 -5.0 1.265625q-4.359375 0 -7.046875 -2.796875q-2.6875 -2.796875 -2.6875 -8.046875zm3.609375 0q0 3.984375 1.734375 5.96875q1.75 1.984375 4.390625 1.984375q2.609375 0 4.34375 -1.984375q1.75 -2.0 1.75 -6.078125q0 -3.859375 -1.75 -5.828125q-1.75 -1.984375 -4.34375 -1.984375q-2.640625 0 -4.390625 1.96875q-1.734375 1.96875 -1.734375 5.953125zm19.949219 10.375l0 -20.75l3.15625 0l0 2.953125q2.296875 -3.421875 6.609375 -3.421875q1.875 0 3.4375 0.6875q1.578125 0.671875 2.359375 1.765625q0.78125 1.09375 1.09375 2.59375q0.203125 0.96875 0.203125 3.421875l0 12.75l-3.515625 0l0 -12.625q0 -2.140625 -0.421875 -3.203125q-0.40625 -1.0625 -1.453125 -1.703125q-1.046875 -0.640625 -2.453125 -0.640625q-2.234375 0 -3.875 1.4375q-1.625 1.421875 -1.625 5.40625l0 11.328125l-3.515625 0zm22.246094 0l0 -20.75l3.15625 0l0 2.953125q2.296875 -3.421875 6.609375 -3.421875q1.875 0 3.4375 0.6875q1.578125 0.671875 2.359375 1.765625q0.78125 1.09375 1.09375 2.59375q0.203125 0.96875 0.203125 3.421875l0 12.75l-3.515625 0l0 -12.625q0 -2.140625 -0.421875 -3.203125q-0.40625 -1.0625 -1.453125 -1.703125q-1.046875 -0.640625 -2.453125 -0.640625q-2.234375 0 -3.875 1.4375q-1.625 1.421875 -1.625 5.40625l0 11.328125l-3.515625 0zm36.44922 -6.6875l3.625 0.453125q-0.859375 3.1875 -3.1875 4.953125q-2.3125 1.75 -5.9375 1.75q-4.546875 0 -7.21875 -2.796875q-2.65625 -2.8125 -2.65625 -7.875q0 -5.234375 2.6875 -8.125q2.703125 -2.890625 7.0 -2.890625q4.15625 0 6.796875 2.84375q2.640625 2.828125 2.640625 7.96875q0 0.3125 -0.03125 0.9375l-15.46875 0q0.203125 3.40625 1.9375 5.234375q1.734375 1.8125 4.34375 1.8125q1.921875 0 3.28125 -1.015625q1.375 -1.015625 2.1875 -3.25zm-11.546875 -5.671875l11.578125 0q-0.234375 -2.625 -1.328125 -3.9375q-1.671875 -2.03125 -4.359375 -2.03125q-2.421875 0 -4.078125 1.625q-1.640625 1.625 -1.8125 4.34375zm33.121094 4.765625l3.453125 0.4375q-0.5625 3.578125 -2.90625 5.609375q-2.328125 2.015625 -5.71875 2.015625q-4.265625 0 -6.859375 -2.78125q-2.578125 -2.78125 -2.578125 -7.984375q0 -3.359375 1.109375 -5.875q1.125 -2.515625 3.390625 -3.78125q2.28125 -1.265625 4.953125 -1.265625q3.375 0 5.515625 1.71875q2.15625 1.703125 2.765625 4.84375l-3.421875 0.53125q-0.484375 -2.09375 -1.734375 -3.140625q-1.234375 -1.0625 -2.984375 -1.0625q-2.65625 0 -4.328125 1.90625q-1.65625 1.90625 -1.65625 6.03125q0 4.171875 1.59375 6.078125q1.609375 1.890625 4.1875 1.890625q2.078125 0 3.453125 -1.265625q1.390625 -1.28125 1.765625 -3.90625zm14.140625 4.453125l0.515625 3.09375q-1.484375 0.328125 -2.65625 0.328125q-1.921875 0 -2.984375 -0.609375q-1.046875 -0.609375 -1.484375 -1.59375q-0.421875 -0.984375 -0.421875 -4.15625l0 -11.9375l-2.578125 0l0 -2.734375l2.578125 0l0 -5.125l3.5 -2.109375l0 7.234375l3.53125 0l0 2.734375l-3.53125 0l0 12.140625q0 1.5 0.1875 1.9375q0.1875 0.421875 0.59375 0.671875q0.421875 0.25 1.203125 0.25q0.59375 0 1.546875 -0.125zm5.3164062 -3.96875l-1.078125 -15.171875l0 -6.359375l4.359375 0l0 6.359375l-1.015625 15.171875l-2.265625 0zm-0.921875 7.109375l0 -4.0l4.046875 0l0 4.0l-4.046875 0z" fill-rule="nonzero"/><path fill="#000000" fill-opacity="0.0" d="m2803.1995 1560.0l-2.3937988 -139.21265" fill-rule="evenodd"/><path stroke="#00b4d8" stroke-width="4.0" stroke-linejoin="round" stroke-linecap="butt" d="m2803.1995 1560.0l-2.3937988 -139.21265" fill-rule="evenodd"/><path fill="#000000" fill-opacity="0.0" d="m2808.0 355.19946l252.0 -2.3936768" fill-rule="evenodd"/><path stroke="#00b4d8" stroke-width="4.0" stroke-linejoin="round" stroke-linecap="butt" d="m2808.0 355.19946l252.0 -2.3936768" fill-rule="evenodd"/><path fill="#000000" fill-opacity="0.0" d="m292.80054 1560.0l1675.2126 -12.0" fill-rule="evenodd"/><path stroke="#00b4d8" stroke-width="8.0" stroke-linejoin="round" stroke-linecap="butt" d="m292.80054 1560.0l1675.2126 -12.0" fill-rule="evenodd"/><path fill="#00b4d8" d="m271.19946 1522.0029l0 0c0 -9.50061 7.7018127 -17.202393 17.202454 -17.202393l114.38251 0c4.562378 0 8.937897 1.8123779 12.163971 5.038452c3.2260742 3.2260742 5.0384827 7.6015625 5.0384827 12.16394l0 68.80774c0 9.50061 -7.701782 17.202515 -17.202454 17.202515l-114.38251 0c-9.500641 0 -17.202454 -7.7019043 -17.202454 -17.202515z" fill-rule="evenodd"/><path stroke="#000000" stroke-width="1.0" stroke-linejoin="round" stroke-linecap="butt" d="m271.19946 1522.0029l0 0c0 -9.50061 7.7018127 -17.202393 17.202454 -17.202393l114.38251 0c4.562378 0 8.937897 1.8123779 12.163971 5.038452c3.2260742 3.2260742 5.0384827 7.6015625 5.0384827 12.16394l0 68.80774c0 9.50061 -7.701782 17.202515 -17.202454 17.202515l-114.38251 0c-9.500641 0 -17.202454 -7.7019043 -17.202454 -17.202515z" fill-rule="evenodd"/></g></svg>