<svg version="1.1" viewBox="0.0 0.0 3150.0 1800.0" fill="none" stroke="none" stroke-linecap="square" stroke-miterlimit="10" xmlns:xlink="http://www.w3.org/1999/xlink" xmlns="http://www.w3.org/2000/svg"><clipPath id="p.0"><path d="m0 0l3150.0 0l0 1800.0l-3150.0 0l0 -1800.0z" clip-rule="nonzero"/></clipPath><g clip-path="url(#p.0)"><path fill="#000000" fill-opacity="0.0" d="m0 0l3150.0 0l0 1800.0l-3150.0 0z" fill-rule="evenodd"/><path fill="#000000" fill-opacity="0.0" d="m266.73752 243.69817l554.3937 0l0 77.574814l-554.3937 0z" fill-rule="evenodd"/><path fill="#0ca4bd" d="m302.95627 294.95004q-1.53125 1.765625 -3.421875 2.84375q-1.875 1.0625 -3.78125 1.0625q-2.078125 0 -4.046875 -1.21875q-1.96875 -1.234375 -3.203125 -3.765625q-1.234375 -2.53125 -1.234375 -5.546875q0 -3.734375 1.90625 -7.46875q1.921875 -3.734375 4.75 -5.609375q2.84375 -1.875 5.515625 -1.875q2.03125 0 3.875 1.0625q1.859375 1.0625 3.203125 3.25l0.796875 -3.640625l4.1875 0l-3.375 15.734375q-0.703125 3.28125 -0.703125 3.625q0 0.640625 0.484375 1.09375q0.484375 0.453125 1.15625 0.453125q1.25 0 3.265625 -1.421875q2.671875 -1.875 4.21875 -5.03125q1.5625 -3.15625 1.5625 -6.5q0 -3.921875 -2.0 -7.3125q-2.0 -3.40625 -5.984375 -5.4375q-3.96875 -2.046875 -8.765625 -2.046875q-5.484375 0 -10.03125 2.578125q-4.53125 2.5625 -7.03125 7.359375q-2.484375 4.78125 -2.484375 10.265625q0 5.75 2.484375 9.90625q2.5 4.140625 7.21875 6.125q4.734375 1.984375 10.46875 1.984375q6.140625 0 10.28125 -2.0625q4.15625 -2.0625 6.21875 -5.03125l4.25 0q-1.203125 2.46875 -4.109375 5.015625q-2.90625 2.5625 -6.921875 4.046875q-4.0 1.5 -9.640625 1.5q-5.203125 0 -9.609375 -1.34375q-4.390625 -1.328125 -7.484375 -4.015625q-3.09375 -2.6875 -4.65625 -6.1875q-1.96875 -4.421875 -1.96875 -9.5625q0 -5.71875 2.34375 -10.890625q2.859375 -6.359375 8.109375 -9.734375q5.265625 -3.375 12.765625 -3.375q5.8125 0 10.4375 2.390625q4.640625 2.375 7.3125 7.078125q2.265625 4.0625 2.265625 8.8125q0 6.796875 -4.78125 12.078125q-4.265625 4.734375 -9.328125 4.734375q-1.609375 0 -2.609375 -0.484375q-1.0 -0.5 -1.46875 -1.421875q-0.296875 -0.578125 -0.4375 -2.015625zm-11.34375 -6.34375q0 3.203125 1.515625 4.984375q1.53125 1.78125 3.5 1.78125q1.3125 0 2.765625 -0.78125q1.453125 -0.78125 2.765625 -2.328125q1.328125 -1.546875 2.171875 -3.921875q0.84375 -2.390625 0.84375 -4.78125q0 -3.1875 -1.578125 -4.9375q-1.578125 -1.765625 -3.859375 -1.765625q-1.5 0 -2.828125 0.765625q-1.3125 0.765625 -2.5625 2.453125q-1.234375 1.6875 -1.984375 4.109375q-0.75 2.40625 -0.75 4.421875zm36.554688 10.171875l0 -34.359375l11.84375 0q4.0 0 6.109375 0.484375q2.953125 0.6875 5.046875 2.46875q2.71875 2.296875 4.0625 5.875q1.34375 3.5625 1.34375 8.15625q0 3.921875 -0.921875 6.953125q-0.90625 3.015625 -2.34375 5.0q-1.421875 1.96875 -3.125 3.109375q-1.6875 1.140625 -4.09375 1.734375q-2.40625 0.578125 -5.515625 0.578125l-12.40625 0zm4.546875 -4.0625l7.34375 0q3.390625 0 5.328125 -0.625q1.9375 -0.640625 3.078125 -1.78125q1.625 -1.625 2.515625 -4.34375q0.90625 -2.734375 0.90625 -6.625q0 -5.390625 -1.765625 -8.28125q-1.765625 -2.90625 -4.296875 -3.890625q-1.828125 -0.703125 -5.890625 -0.703125l-7.21875 0l0 26.25zm46.617188 -3.953125l4.359375 0.53125q-1.03125 3.828125 -3.828125 5.9375q-2.78125 2.109375 -7.109375 2.109375q-5.46875 0 -8.671875 -3.359375q-3.1875 -3.375 -3.1875 -9.4375q0 -6.28125 3.234375 -9.75q3.234375 -3.46875 8.390625 -3.46875q4.984375 0 8.140625 3.40625q3.171875 3.390625 3.171875 9.546875q0 0.375 -0.015625 1.125l-18.5625 0q0.234375 4.109375 2.3125 6.296875q2.09375 2.171875 5.203125 2.171875q2.328125 0 3.96875 -1.21875q1.640625 -1.21875 2.59375 -3.890625zm-13.84375 -6.828125l13.890625 0q-0.28125 -3.140625 -1.59375 -4.703125q-2.015625 -2.4375 -5.21875 -2.4375q-2.90625 0 -4.890625 1.953125q-1.984375 1.9375 -2.1875 5.1875zm30.414062 14.84375l-9.46875 -24.890625l4.453125 0l5.34375 14.90625q0.875 2.40625 1.59375 5.015625q0.5625 -1.96875 1.578125 -4.734375l5.53125 -15.1875l4.328125 0l-9.421875 24.890625l-3.9375 0zm13.84375 0l13.203125 -34.359375l4.90625 0l14.0625 34.359375l-5.1875 0l-4.0 -10.40625l-14.375 0l-3.765625 10.40625l-4.84375 0zm9.921875 -14.109375l11.65625 0l-3.59375 -9.515625q-1.640625 -4.34375 -2.4375 -7.125q-0.65625 3.296875 -1.84375 6.5625l-3.78125 10.078125zm25.34375 14.109375l0 -24.890625l3.765625 0l0 3.484375q1.171875 -1.828125 3.109375 -2.9375q1.953125 -1.109375 4.4375 -1.109375q2.765625 0 4.53125 1.15625q1.78125 1.140625 2.5 3.203125q2.953125 -4.359375 7.6875 -4.359375q3.703125 0 5.6875 2.046875q2.0 2.046875 2.0 6.3125l0 17.09375l-4.1875 0l0 -15.6875q0 -2.53125 -0.421875 -3.640625q-0.40625 -1.109375 -1.484375 -1.78125q-1.078125 -0.6875 -2.53125 -0.6875q-2.625 0 -4.359375 1.75q-1.734375 1.734375 -1.734375 5.578125l0 14.46875l-4.21875 0l0 -16.171875q0 -2.8125 -1.03125 -4.21875q-1.03125 -1.40625 -3.375 -1.40625q-1.78125 0 -3.296875 0.9375q-1.5 0.9375 -2.1875 2.75q-0.671875 1.796875 -0.671875 5.1875l0 12.921875l-4.21875 0zm57.015625 -8.015625l4.359375 0.53125q-1.03125 3.828125 -3.828125 5.9375q-2.78125 2.109375 -7.109375 2.109375q-5.46875 0 -8.671875 -3.359375q-3.1875 -3.375 -3.1875 -9.4375q0 -6.28125 3.234375 -9.75q3.234375 -3.46875 8.390625 -3.46875q4.984375 0 8.140625 3.40625q3.171875 3.390625 3.171875 9.546875q0 0.375 -0.015625 1.125l-18.5625 0q0.234375 4.109375 2.3125 6.296875q2.09375 2.171875 5.203125 2.171875q2.328125 0 3.96875 -1.21875q1.640625 -1.21875 2.59375 -3.890625zm-13.84375 -6.828125l13.890625 0q-0.28125 -3.140625 -1.59375 -4.703125q-2.015625 -2.4375 -5.21875 -2.4375q-2.90625 0 -4.890625 1.953125q-1.984375 1.9375 -2.1875 5.1875zm40.539093 6.828125l4.359375 0.53125q-1.03125 3.828125 -3.828125 5.9375q-2.78125 2.109375 -7.109375 2.109375q-5.46875 0 -8.671875 -3.359375q-3.1875305 -3.375 -3.1875305 -9.4375q0 -6.28125 3.2344055 -9.75q3.234375 -3.46875 8.390625 -3.46875q4.984375 0 8.140625 3.40625q3.171875 3.390625 3.171875 9.546875q0 0.375 -0.015625 1.125l-18.5625 0q0.234375 4.109375 2.3125 6.296875q2.09375 2.171875 5.203125 2.171875q2.328125 0 3.96875 -1.21875q1.640625 -1.21875 2.59375 -3.890625zm-13.84375 -6.828125l13.890625 0q-0.28125 -3.140625 -1.59375 -4.703125q-2.015625 -2.4375 -5.21875 -2.4375q-2.90625 0 -4.890625 1.953125q-1.984375 1.9375 -2.1875 5.1875zm23.507812 14.84375l0 -24.890625l3.796875 0l0 3.53125q2.734375 -4.09375 7.921875 -4.09375q2.25 0 4.125 0.8125q1.890625 0.796875 2.828125 2.109375q0.9375 1.3125 1.3125 3.125q0.234375 1.171875 0.234375 4.09375l0 15.3125l-4.21875 0l0 -15.140625q0 -2.578125 -0.5 -3.859375q-0.484375 -1.28125 -1.734375 -2.03125q-1.25 -0.765625 -2.9375 -0.765625q-2.703125 0 -4.65625 1.71875q-1.953125 1.703125 -1.953125 6.484375l0 13.59375l-4.21875 0zm27.085938 0l0 -34.359375l6.84375 0l8.140625 24.328125q1.125 3.390625 1.640625 5.078125q0.578125 -1.875 1.828125 -5.5l8.21875 -23.90625l6.125 0l0 34.359375l-4.390625 0l0 -28.765625l-9.984375 28.765625l-4.09375 0l-9.9375 -29.25l0 29.25l-4.390625 0z" fill-rule="nonzero"/><path fill="#000000" fill-opacity="0.0" d="m266.73752 677.53284l2119.2126 0l0 407.24402l-2119.2126 0z" fill-rule="evenodd"/><path fill="#0ca4bd" d="m288.55002 840.1328l0 -114.53125l15.15625 0l0 47.03125l59.53125 0l0 -47.03125l15.15625 0l0 114.53125l-15.15625 0l0 -53.984375l-59.53125 0l0 53.984375l-15.15625 0zm170.07812 -26.71875l14.53125 1.796875q-3.4375 12.734375 -12.734375 19.765625q-9.296875 7.03125 -23.75 7.03125q-18.203125 0 -28.875 -11.203125q-10.65625 -11.21875 -10.65625 -31.453125q0 -20.9375 10.78125 -32.5q10.78125 -11.5625 27.96875 -11.5625q16.640625 0 27.1875 11.328125q10.546875 11.328125 10.546875 31.875q0 1.25 -0.078125 3.75l-61.875 0q0.78125 13.671875 7.734375 20.9375q6.953125 7.265625 17.34375 7.265625q7.734375 0 13.203125 -4.0625q5.46875 -4.0625 8.671875 -12.96875zm-46.171875 -22.734375l46.328125 0q-0.9375 -10.46875 -5.3125 -15.703125q-6.71875 -8.125 -17.421875 -8.125q-9.6875 0 -16.296875 6.484375q-6.59375 6.484375 -7.296875 17.34375zm78.046875 49.453125l0 -114.53125l14.0625 0l0 114.53125l-14.0625 0zm35.546906 0l0 -114.53125l14.0625 0l0 114.53125l-14.0625 0zm30.625 -41.484375q0 -23.046875 12.8125 -34.140625q10.703125 -9.21875 26.09375 -9.21875q17.109375 0 27.96875 11.21875q10.859375 11.203125 10.859375 30.96875q0 16.015625 -4.8125 25.203125q-4.796875 9.171875 -13.984375 14.25q-9.171875 5.078125 -20.03125 5.078125q-17.421875 0 -28.171875 -11.171875q-10.734375 -11.171875 -10.734375 -32.1875zm14.453125 0q0 15.9375 6.953125 23.875q6.953125 7.921875 17.5 7.921875q10.46875 0 17.421875 -7.96875q6.953125 -7.96875 6.953125 -24.296875q0 -15.390625 -7.0 -23.3125q-6.984375 -7.9375 -17.375 -7.9375q-10.546875 0 -17.5 7.890625q-6.953125 7.890625 -6.953125 23.828125zm139.53125 41.484375l-25.390625 -82.96875l14.53125 0l13.203125 47.890625l4.921875 17.8125q0.3125 -1.328125 4.296875 -17.109375l13.203125 -48.59375l14.453125 0l12.421875 48.125l4.140625 15.859375l4.765625 -16.015625l14.21875 -47.96875l13.671875 0l-25.9375 82.96875l-14.609375 0l-13.203125 -49.6875l-3.203125 -14.140625l-16.796875 63.828125l-14.6875 0zm95.0 -41.484375q0 -23.046875 12.8125 -34.140625q10.703125 -9.21875 26.09375 -9.21875q17.109375 0 27.96875 11.21875q10.859375 11.203125 10.859375 30.96875q0 16.015625 -4.8125 25.203125q-4.796875 9.171875 -13.984375 14.25q-9.171875 5.078125 -20.03125 5.078125q-17.421875 0 -28.171875 -11.171875q-10.734375 -11.171875 -10.734375 -32.1875zm14.453125 0q0 15.9375 6.953125 23.875q6.953125 7.921875 17.5 7.921875q10.46875 0 17.421875 -7.96875q6.953125 -7.96875 6.953125 -24.296875q0 -15.390625 -7.0 -23.3125q-6.984375 -7.9375 -17.375 -7.9375q-10.546875 0 -17.5 7.890625q-6.953125 7.890625 -6.953125 23.828125zm79.609375 41.484375l0 -82.96875l12.65625 0l0 12.578125q4.84375 -8.828125 8.9375 -11.640625q4.109375 -2.8125 9.03125 -2.8125q7.109375 0 14.453125 4.53125l-4.84375 13.046875q-5.15625 -3.046875 -10.3125 -3.046875q-4.609375 0 -8.28125 2.78125q-3.671875 2.765625 -5.234375 7.6875q-2.34375 7.5 -2.34375 16.40625l0 43.4375l-14.0625 0zm53.125 0l0 -114.53125l14.0625 0l0 114.53125l-14.0625 0zm89.6875 0l0 -10.46875q-7.890625 12.34375 -23.203125 12.34375q-9.921875 0 -18.25 -5.46875q-8.3125 -5.46875 -12.890625 -15.265625q-4.5625 -9.8125 -4.5625 -22.546875q0 -12.421875 4.140625 -22.53125q4.140625 -10.125 12.421875 -15.515625q8.28125 -5.390625 18.515625 -5.390625q7.5 0 13.359375 3.171875q5.859375 3.15625 9.53125 8.234375l0 -41.09375l13.984375 0l0 114.53125l-13.046875 0zm-44.453125 -41.40625q0 15.9375 6.71875 23.828125q6.71875 7.890625 15.859375 7.890625q9.21875 0 15.65625 -7.53125q6.453125 -7.546875 6.453125 -23.015625q0 -17.03125 -6.5625 -25.0q-6.5625 -7.96875 -16.171875 -7.96875q-9.375 0 -15.671875 7.65625q-6.28125 7.65625 -6.28125 24.140625zm87.109375 12.96875l-4.296875 -60.703125l0 -25.390625l17.421875 0l0 25.390625l-4.0625 60.703125l-9.0625 0zm-3.671875 28.4375l0 -16.015625l16.171875 0l0 16.015625l-16.171875 0z" fill-rule="nonzero"/><path fill="#0ca4bd" d="m290.6594 1032.1328l0 -114.53125l15.15625 0l0 114.53125l-15.15625 0zm39.21875 -99.375l0 -16.328125l15.078125 0l0 12.890625q0 10.46875 -2.421875 15.078125q-3.359375 6.328125 -10.46875 9.53125l-3.4375 -5.546875q4.21875 -1.71875 6.28125 -5.421875q2.078125 -3.71875 2.3125 -10.203125l-7.34375 0zm36.40625 99.375l0 -82.96875l12.578125 0l0 11.640625q3.90625 -6.09375 10.390625 -9.796875q6.484375 -3.71875 14.765625 -3.71875q9.21875 0 15.109375 3.828125q5.90625 3.828125 8.328125 10.703125q9.84375 -14.53125 25.625 -14.53125q12.34375 0 18.984375 6.84375q6.640625 6.828125 6.640625 21.046875l0 56.953125l-13.984375 0l0 -52.265625q0 -8.4375 -1.375 -12.140625q-1.359375 -3.71875 -4.953125 -5.984375q-3.59375 -2.265625 -8.4375 -2.265625q-8.75 0 -14.53125 5.828125q-5.78125 5.8125 -5.78125 18.625l0 48.203125l-14.0625 0l0 -53.90625q0 -9.375 -3.4375 -14.0625q-3.4375 -4.6875 -11.25 -4.6875q-5.9375 0 -10.984375 3.125q-5.03125 3.125 -7.296875 9.140625q-2.265625 6.015625 -2.265625 17.34375l0 43.046875l-14.0625 0zm175.93753 -50.078125l0 -13.125l75.859375 -32.03125l0 13.984375l-60.15625 24.6875l60.15625 24.921875l0 13.984375l-75.859375 -32.421875zm97.03125 50.078125l0 -114.53125l39.453125 0q13.359375 0 20.390625 1.640625q9.84375 2.265625 16.796875 8.203125q9.0625 7.65625 13.546875 19.578125q4.5 11.90625 4.5 27.21875q0 13.046875 -3.046875 23.125q-3.046875 10.078125 -7.8125 16.6875q-4.765625 6.59375 -10.4375 10.390625q-5.65625 3.78125 -13.671875 5.734375q-8.0 1.953125 -18.390625 1.953125l-41.328125 0zm15.15625 -13.515625l24.453125 0q11.328125 0 17.765625 -2.109375q6.453125 -2.109375 10.28125 -5.9375q5.390625 -5.390625 8.390625 -14.484375q3.015625 -9.109375 3.015625 -22.078125q0 -17.96875 -5.90625 -27.609375q-5.890625 -9.65625 -14.328125 -12.9375q-6.09375 -2.34375 -19.609375 -2.34375l-24.0625 0l0 87.5zm155.39062 -13.203125l14.53125 1.796875q-3.4375 12.734375 -12.734375 19.765625q-9.296875 7.03125 -23.75 7.03125q-18.203125 0 -28.875 -11.203125q-10.65625 -11.21875 -10.65625 -31.453125q0 -20.9375 10.78125 -32.5q10.78125 -11.5625 27.96875 -11.5625q16.640625 0 27.1875 11.328125q10.546875 11.328125 10.546875 31.875q0 1.25 -0.078125 3.75l-61.875 0q0.78125 13.671875 7.734375 20.9375q6.953125 7.265625 17.34375 7.265625q7.734375 0 13.203125 -4.0625q5.46875 -4.0625 8.671875 -12.96875zm-46.171875 -22.734375l46.328125 0q-0.9375 -10.46875 -5.3125 -15.703125q-6.71875 -8.125 -17.421875 -8.125q-9.6875 0 -16.296875 6.484375q-6.59375 6.484375 -7.296875 17.34375zm101.40625 49.453125l-31.5625 -82.96875l14.84375 0l17.8125 49.6875q2.890625 8.046875 5.3125 16.71875q1.875 -6.5625 5.234375 -15.78125l18.4375 -50.625l14.453125 0l-31.40625 82.96875l-13.125 0zm43.984375 31.796875l0 -10.15625l93.203125 0l0 10.15625l-93.203125 0zm91.171875 -31.796875l43.984375 -114.53125l16.328125 0l46.875 114.53125l-17.265625 0l-13.359375 -34.6875l-47.890625 0l-12.578125 34.6875l-16.09375 0zm33.046875 -47.03125l38.828125 0l-11.953125 -31.71875q-5.46875 -14.453125 -8.125 -23.75q-2.1875 11.015625 -6.171875 21.875l-12.578125 33.59375zm84.453125 47.03125l0 -82.96875l12.578125 0l0 11.640625q3.90625 -6.09375 10.390625 -9.796875q6.484375 -3.71875 14.765625 -3.71875q9.21875 0 15.109375 3.828125q5.90625 3.828125 8.328125 10.703125q9.84375 -14.53125 25.625 -14.53125q12.34375 0 18.984375 6.84375q6.640625 6.828125 6.640625 21.046875l0 56.953125l-13.984375 0l0 -52.265625q0 -8.4375 -1.375 -12.140625q-1.359375 -3.71875 -4.953125 -5.984375q-3.59375 -2.265625 -8.4375 -2.265625q-8.75 0 -14.53125 5.828125q-5.78125 5.8125 -5.78125 18.625l0 48.203125l-14.0625 0l0 -53.90625q0 -9.375 -3.4375 -14.0625q-3.4375 -4.6875 -11.25 -4.6875q-5.9375 0 -10.984375 3.125q-5.03125 3.125 -7.296875 9.140625q-2.265625 6.015625 -2.265625 17.34375l0 43.046875l-14.0625 0zm190.07812 -26.71875l14.53125 1.796875q-3.4375 12.734375 -12.734375 19.765625q-9.296875 7.03125 -23.75 7.03125q-18.203125 0 -28.875 -11.203125q-10.65625 -11.21875 -10.65625 -31.453125q0 -20.9375 10.78125 -32.5q10.78125 -11.5625 27.96875 -11.5625q16.640625 0 27.1875 11.328125q10.546875 11.328125 10.546875 31.875q0 1.25 -0.078125 3.75l-61.875 0q0.78125 13.671875 7.734375 20.9375q6.953125 7.265625 17.34375 7.265625q7.734375 0 13.203125 -4.0625q5.46875 -4.0625 8.671875 -12.96875zm-46.171875 -22.734375l46.328125 0q-0.9375 -10.46875 -5.3125 -15.703125q-6.71875 -8.125 -17.421875 -8.125q-9.6875 0 -16.296875 6.484375q-6.59375 6.484375 -7.296875 17.34375zm135.15625 22.734375l14.53125 1.796875q-3.4375 12.734375 -12.734375 19.765625q-9.296875 7.03125 -23.75 7.03125q-18.203125 0 -28.875 -11.203125q-10.65625 -11.21875 -10.65625 -31.453125q0 -20.9375 10.78125 -32.5q10.78125 -11.5625 27.96875 -11.5625q16.640625 0 27.1875 11.328125q10.546875 11.328125 10.546875 31.875q0 1.25 -0.078125 3.75l-61.875 0q0.78125 13.671875 7.734375 20.9375q6.953125 7.265625 17.34375 7.265625q7.734375 0 13.203125 -4.0625q5.46875 -4.0625 8.671875 -12.96875zm-46.171875 -22.734375l46.328125 0q-0.9375 -10.46875 -5.3125 -15.703125q-6.71875 -8.125 -17.421875 -8.125q-9.6875 0 -16.296875 6.484375q-6.59375 6.484375 -7.296875 17.34375zm78.359375 49.453125l0 -82.96875l12.65625 0l0 11.796875q9.140625 -13.671875 26.40625 -13.671875q7.5 0 13.78125 2.703125q6.296875 2.6875 9.421875 7.0625q3.125 4.375 4.375 10.390625q0.78125 3.90625 0.78125 13.671875l0 51.015625l-14.0625 0l0 -50.46875q0 -8.59375 -1.640625 -12.84375q-1.640625 -4.265625 -5.828125 -6.796875q-4.171875 -2.546875 -9.796875 -2.546875q-8.984375 0 -15.515625 5.703125q-6.515625 5.703125 -6.515625 21.640625l0 45.3125l-14.0625 0zm163.04688 -50.078125l-75.859375 32.421875l0 -13.984375l60.078125 -24.921875l-60.078125 -24.6875l0 -13.984375l75.859375 32.03125l0 13.125z" fill-rule="nonzero"/><path fill="#000000" fill-opacity="0.0" d="m2462.399 194.39896l619.21265 0l0 135.74802l-619.21265 0z" fill-rule="evenodd"/><path fill="#0ca4bd" d="m2473.5552 238.43207l4.296875 -0.375q0.296875 2.578125 1.40625 4.234375q1.125 1.65625 3.46875 2.671875q2.34375 1.015625 5.265625 1.015625q2.609375 0 4.59375 -0.765625q2.0 -0.78125 2.96875 -2.125q0.96875 -1.34375 0.96875 -2.9375q0 -1.625 -0.9375 -2.828125q-0.9375 -1.203125 -3.09375 -2.03125q-1.375 -0.53125 -6.109375 -1.671875q-4.734375 -1.140625 -6.640625 -2.140625q-2.453125 -1.296875 -3.671875 -3.203125q-1.203125 -1.90625 -1.203125 -4.28125q0 -2.59375 1.46875 -4.859375q1.484375 -2.265625 4.3125 -3.4375q2.84375 -1.171875 6.3125 -1.171875q3.828125 0 6.734375 1.234375q2.921875 1.234375 4.484375 3.625q1.578125 2.390625 1.703125 5.40625l-4.359375 0.328125q-0.359375 -3.25 -2.390625 -4.90625q-2.015625 -1.671875 -5.984375 -1.671875q-4.125 0 -6.015625 1.515625q-1.875 1.5 -1.875 3.640625q0 1.84375 1.328125 3.046875q1.3125 1.1875 6.859375 2.453125q5.546875 1.25 7.609375 2.1875q3.0 1.375 4.421875 3.5q1.4375 2.125 1.4375 4.890625q0 2.734375 -1.578125 5.171875q-1.5625 2.421875 -4.515625 3.78125q-2.9375 1.34375 -6.609375 1.34375q-4.671875 0 -7.828125 -1.359375q-3.140625 -1.375 -4.9375 -4.09375q-1.796875 -2.734375 -1.890625 -6.1875zm31.453125 -1.40625q0 -6.90625 3.84375 -10.234375q3.21875 -2.765625 7.828125 -2.765625q5.140625 0 8.390625 3.359375q3.265625 3.359375 3.265625 9.296875q0 4.796875 -1.453125 7.5625q-1.4375 2.75 -4.1875 4.28125q-2.75 1.515625 -6.015625 1.515625q-5.21875 0 -8.453125 -3.34375q-3.21875 -3.359375 -3.21875 -9.671875zm4.34375 0q0 4.78125 2.078125 7.171875q2.09375 2.375 5.25 2.375q3.140625 0 5.21875 -2.390625q2.09375 -2.390625 2.09375 -7.296875q0 -4.609375 -2.09375 -6.984375q-2.09375 -2.390625 -5.21875 -2.390625q-3.15625 0 -5.25 2.375q-2.078125 2.359375 -2.078125 7.140625zm24.929688 12.453125l0 -21.609375l-3.71875 0l0 -3.28125l3.71875 0l0 -2.65625q0 -2.5 0.453125 -3.71875q0.609375 -1.640625 2.140625 -2.65625q1.53125 -1.03125 4.296875 -1.03125q1.78125 0 3.9375 0.421875l-0.625 3.6875q-1.3125 -0.234375 -2.484375 -0.234375q-1.921875 0 -2.71875 0.828125q-0.796875 0.8125 -0.796875 3.0625l0 2.296875l4.84375 0l0 3.28125l-4.84375 0l0 21.609375l-4.203125 0zm21.539062 -3.78125l0.609375 3.734375q-1.78125 0.375 -3.1875 0.375q-2.296875 0 -3.5625 -0.71875q-1.265625 -0.734375 -1.78125 -1.921875q-0.515625 -1.1875 -0.515625 -4.984375l0 -14.3125l-3.09375 0l0 -3.28125l3.09375 0l0 -6.171875l4.203125 -2.53125l0 8.703125l4.234375 0l0 3.28125l-4.234375 0l0 14.546875q0 1.8125 0.21875 2.328125q0.21875 0.515625 0.71875 0.828125q0.515625 0.296875 1.453125 0.296875q0.703125 0 1.84375 -0.171875zm8.7265625 3.78125l-7.625 -24.890625l4.359375 0l3.96875 14.359375l1.46875 5.34375q0.09375 -0.390625 1.296875 -5.125l3.953125 -14.578125l4.34375 0l3.71875 14.4375l1.25 4.75l1.421875 -4.796875l4.265625 -14.390625l4.109375 0l-7.78125 24.890625l-4.390625 0l-3.953125 -14.90625l-0.96875 -4.25l-5.03125 19.15625l-4.40625 0zm46.304688 -3.078125q-2.34375 2.0 -4.515625 2.828125q-2.15625 0.8125 -4.640625 0.8125q-4.109375 0 -6.3125 -2.0q-2.203125 -2.015625 -2.203125 -5.125q0 -1.828125 0.828125 -3.34375q0.84375 -1.515625 2.1875 -2.421875q1.34375 -0.921875 3.03125 -1.390625q1.25 -0.328125 3.75 -0.625q5.109375 -0.609375 7.53125 -1.453125q0.015625 -0.875 0.015625 -1.109375q0 -2.578125 -1.1875 -3.625q-1.625 -1.4375 -4.8125 -1.4375q-2.96875 0 -4.390625 1.046875q-1.421875 1.046875 -2.09375 3.6875l-4.125 -0.5625q0.5625 -2.640625 1.84375 -4.265625q1.296875 -1.640625 3.734375 -2.515625q2.4375 -0.875 5.640625 -0.875q3.1875 0 5.171875 0.75q2.0 0.75 2.9375 1.890625q0.9375 1.125 1.3125 2.859375q0.21875 1.078125 0.21875 3.890625l0 5.625q0 5.890625 0.265625 7.453125q0.265625 1.546875 1.0625 2.984375l-4.40625 0q-0.65625 -1.3125 -0.84375 -3.078125zm-0.34375 -9.421875q-2.296875 0.9375 -6.890625 1.59375q-2.609375 0.375 -3.6875 0.84375q-1.078125 0.46875 -1.671875 1.375q-0.578125 0.90625 -0.578125 2.0q0 1.6875 1.28125 2.8125q1.28125 1.125 3.734375 1.125q2.4375 0 4.328125 -1.0625q1.90625 -1.0625 2.796875 -2.921875q0.6875 -1.421875 0.6875 -4.21875l0 -1.546875zm10.7578125 12.5l0 -24.890625l3.796875 0l0 3.765625q1.453125 -2.640625 2.671875 -3.484375q1.234375 -0.84375 2.71875 -0.84375q2.125 0 4.328125 1.359375l-1.453125 3.90625q-1.546875 -0.90625 -3.09375 -0.90625q-1.375 0 -2.484375 0.828125q-1.09375 0.828125 -1.5625 2.3125q-0.703125 2.25 -0.703125 4.921875l0 13.03125l-4.21875 0zm33.0625 -8.015625l4.359375 0.53125q-1.03125 3.828125 -3.828125 5.9375q-2.78125 2.109375 -7.109375 2.109375q-5.46875 0 -8.671875 -3.359375q-3.1875 -3.375 -3.1875 -9.4375q0 -6.28125 3.234375 -9.75q3.234375 -3.46875 8.390625 -3.46875q4.984375 0 8.140625 3.40625q3.171875 3.390625 3.171875 9.546875q0 0.375 -0.015625 1.125l-18.5625 0q0.234375 4.109375 2.3125 6.296875q2.09375 2.171875 5.203125 2.171875q2.328125 0 3.96875 -1.21875q1.640625 -1.21875 2.59375 -3.890625zm-13.84375 -6.828125l13.890625 0q-0.28125 -3.140625 -1.59375 -4.703125q-2.015625 -2.4375 -5.21875 -2.4375q-2.90625 0 -4.890625 1.953125q-1.984375 1.9375 -2.1875 5.1875zm37.46875 14.84375l0 -34.359375l24.84375 0l0 4.046875l-20.296875 0l0 10.53125l19.015625 0l0 4.03125l-19.015625 0l0 11.6875l21.09375 0l0 4.0625l-25.640625 0zm31.390625 0l0 -24.890625l3.796875 0l0 3.53125q2.734375 -4.09375 7.921875 -4.09375q2.25 0 4.125 0.8125q1.890625 0.796875 2.828125 2.109375q0.9375 1.3125 1.3125 3.125q0.234375 1.171875 0.234375 4.09375l0 15.3125l-4.21875 0l0 -15.140625q0 -2.578125 -0.5 -3.859375q-0.484375 -1.28125 -1.734375 -2.03125q-1.25 -0.765625 -2.9375 -0.765625q-2.703125 0 -4.65625 1.71875q-1.953125 1.703125 -1.953125 6.484375l0 13.59375l-4.21875 0zm25.914062 2.0625l4.109375 0.609375q0.25 1.90625 1.421875 2.765625q1.578125 1.171875 4.296875 1.171875q2.921875 0 4.515625 -1.171875q1.59375 -1.171875 2.15625 -3.28125q0.328125 -1.28125 0.3125 -5.421875q-2.765625 3.265625 -6.890625 3.265625q-5.140625 0 -7.953125 -3.703125q-2.8125 -3.703125 -2.8125 -8.890625q0 -3.5625 1.28125 -6.5625q1.296875 -3.015625 3.75 -4.65625q2.453125 -1.640625 5.75 -1.640625q4.40625 0 7.265625 3.5625l0 -3.0l3.890625 0l0 21.515625q0 5.8125 -1.1875 8.234375q-1.171875 2.4375 -3.75 3.84375q-2.5625 1.40625 -6.3125 1.40625q-4.453125 0 -7.203125 -2.015625q-2.734375 -2.0 -2.640625 -6.03125zm3.5 -14.953125q0 4.890625 1.9375 7.140625q1.953125 2.25 4.875 2.25q2.90625 0 4.875 -2.234375q1.96875 -2.234375 1.96875 -7.015625q0 -4.578125 -2.03125 -6.890625q-2.015625 -2.328125 -4.875 -2.328125q-2.8125 0 -4.78125 2.296875q-1.96875 2.28125 -1.96875 6.78125zm23.992188 -16.625l0 -4.84375l4.21875 0l0 4.84375l-4.21875 0zm0 29.515625l0 -24.890625l4.21875 0l0 24.890625l-4.21875 0zm10.6484375 0l0 -24.890625l3.796875 0l0 3.53125q2.734375 -4.09375 7.921875 -4.09375q2.25 0 4.125 0.8125q1.890625 0.796875 2.828125 2.109375q0.9375 1.3125 1.3125 3.125q0.234375 1.171875 0.234375 4.09375l0 15.3125l-4.21875 0l0 -15.140625q0 -2.578125 -0.5 -3.859375q-0.484375 -1.28125 -1.734375 -2.03125q-1.25 -0.765625 -2.9375 -0.765625q-2.703125 0 -4.65625 1.71875q-1.953125 1.703125 -1.953125 6.484375l0 13.59375l-4.21875 0zm43.726562 -8.015625l4.359375 0.53125q-1.03125 3.828125 -3.828125 5.9375q-2.78125 2.109375 -7.109375 2.109375q-5.46875 0 -8.671875 -3.359375q-3.1875 -3.375 -3.1875 -9.4375q0 -6.28125 3.234375 -9.75q3.234375 -3.46875 8.390625 -3.46875q4.984375 0 8.140625 3.40625q3.171875 3.390625 3.171875 9.546875q0 0.375 -0.015625 1.125l-18.5625 0q0.234375 4.109375 2.3125 6.296875q2.09375 2.171875 5.203125 2.171875q2.328125 0 3.96875 -1.21875q1.640625 -1.21875 2.59375 -3.890625zm-13.84375 -6.828125l13.890625 0q-0.28125 -3.140625 -1.59375 -4.703125q-2.015625 -2.4375 -5.21875 -2.4375q-2.90625 0 -4.890625 1.953125q-1.984375 1.9375 -2.1875 5.1875zm40.539062 6.828125l4.359375 0.53125q-1.03125 3.828125 -3.828125 5.9375q-2.78125 2.109375 -7.109375 2.109375q-5.46875 0 -8.671875 -3.359375q-3.1875 -3.375 -3.1875 -9.4375q0 -6.28125 3.234375 -9.75q3.234375 -3.46875 8.390625 -3.46875q4.984375 0 8.140625 3.40625q3.171875 3.390625 3.171875 9.546875q0 0.375 -0.015625 1.125l-18.5625 0q0.234375 4.109375 2.3125 6.296875q2.09375 2.171875 5.203125 2.171875q2.328125 0 3.96875 -1.21875q1.640625 -1.21875 2.59375 -3.890625zm-13.84375 -6.828125l13.890625 0q-0.28125 -3.140625 -1.59375 -4.703125q-2.015625 -2.4375 -5.21875 -2.4375q-2.90625 0 -4.890625 1.953125q-1.984375 1.9375 -2.1875 5.1875zm23.460938 14.84375l0 -24.890625l3.796875 0l0 3.765625q1.453125 -2.640625 2.671875 -3.484375q1.234375 -0.84375 2.71875 -0.84375q2.125 0 4.328125 1.359375l-1.453125 3.90625q-1.546875 -0.90625 -3.09375 -0.90625q-1.375 0 -2.484375 0.828125q-1.09375 0.828125 -1.5625 2.3125q-0.703125 2.25 -0.703125 4.921875l0 13.03125l-4.21875 0z" fill-rule="nonzero"/><path fill="#0ca4bd" d="m2475.1958 307.07895l0 -34.359375l24.84375 0l0 4.046875l-20.296875 0l0 10.53125l19.015625 0l0 4.03125l-19.015625 0l0 11.6875l21.09375 0l0 4.0625l-25.640625 0zm28.578125 0l9.09375 -12.9375l-8.421875 -11.953125l5.28125 0l3.8125 5.828125q1.078125 1.671875 1.734375 2.796875q1.03125 -1.546875 1.90625 -2.75l4.1875 -5.875l5.046875 0l-8.609375 11.71875l9.265625 13.171875l-5.1875 0l-5.109375 -7.734375l-1.359375 -2.09375l-6.53125 9.828125l-5.109375 0zm36.015625 -3.78125l0.609375 3.734375q-1.78125 0.375 -3.1875 0.375q-2.296875 0 -3.5625 -0.71875q-1.265625 -0.734375 -1.78125 -1.921875q-0.515625 -1.1875 -0.515625 -4.984375l0 -14.3125l-3.09375 0l0 -3.28125l3.09375 0l0 -6.171875l4.203125 -2.53125l0 8.703125l4.234375 0l0 3.28125l-4.234375 0l0 14.546875q0 1.8125 0.21875 2.328125q0.21875 0.515625 0.71875 0.828125q0.515625 0.296875 1.453125 0.296875q0.703125 0 1.84375 -0.171875zm4.0859375 3.78125l0 -24.890625l3.796875 0l0 3.765625q1.453125 -2.640625 2.671875 -3.484375q1.234375 -0.84375 2.71875 -0.84375q2.125 0 4.328125 1.359375l-1.453125 3.90625q-1.546875 -0.90625 -3.09375 -0.90625q-1.375 0 -2.484375 0.828125q-1.09375 0.828125 -1.5625 2.3125q-0.703125 2.25 -0.703125 4.921875l0 13.03125l-4.21875 0zm32.265625 -3.078125q-2.34375 2.0 -4.515625 2.828125q-2.15625 0.8125 -4.640625 0.8125q-4.109375 0 -6.3125 -2.0q-2.203125 -2.015625 -2.203125 -5.125q0 -1.828125 0.828125 -3.34375q0.84375 -1.515625 2.1875 -2.421875q1.34375 -0.921875 3.03125 -1.390625q1.25 -0.328125 3.75 -0.625q5.109375 -0.609375 7.53125 -1.453125q0.015625 -0.875 0.015625 -1.109375q0 -2.578125 -1.1875 -3.625q-1.625 -1.4375 -4.8125 -1.4375q-2.96875 0 -4.390625 1.046875q-1.421875 1.046875 -2.09375 3.6875l-4.125 -0.5625q0.5625 -2.640625 1.84375 -4.265625q1.296875 -1.640625 3.734375 -2.515625q2.4375 -0.875 5.640625 -0.875q3.1875 0 5.171875 0.75q2.0 0.75 2.9375 1.890625q0.9375 1.125 1.3125 2.859375q0.21875 1.078125 0.21875 3.890625l0 5.625q0 5.890625 0.265625 7.453125q0.265625 1.546875 1.0625 2.984375l-4.40625 0q-0.65625 -1.3125 -0.84375 -3.078125zm-0.34375 -9.421875q-2.296875 0.9375 -6.890625 1.59375q-2.609375 0.375 -3.6875 0.84375q-1.078125 0.46875 -1.671875 1.375q-0.578125 0.90625 -0.578125 2.0q0 1.6875 1.28125 2.8125q1.28125 1.125 3.734375 1.125q2.4375 0 4.328125 -1.0625q1.90625 -1.0625 2.796875 -2.921875q0.6875 -1.421875 0.6875 -4.21875l0 -1.546875zm9.2265625 0.046875q0 -6.90625 3.84375 -10.234375q3.21875 -2.765625 7.828125 -2.765625q5.140625 0 8.390625 3.359375q3.265625 3.359375 3.265625 9.296875q0 4.796875 -1.453125 7.5625q-1.4375 2.75 -4.1875 4.28125q-2.75 1.515625 -6.015625 1.515625q-5.21875 0 -8.453125 -3.34375q-3.21875 -3.359375 -3.21875 -9.671875zm4.34375 0q0 4.78125 2.078125 7.171875q2.09375 2.375 5.25 2.375q3.140625 0 5.21875 -2.390625q2.09375 -2.390625 2.09375 -7.296875q0 -4.609375 -2.09375 -6.984375q-2.09375 -2.390625 -5.21875 -2.390625q-3.15625 0 -5.25 2.375q-2.078125 2.359375 -2.078125 7.140625zm23.882812 12.453125l0 -24.890625l3.796875 0l0 3.765625q1.453125 -2.640625 2.671875 -3.484375q1.234375 -0.84375 2.71875 -0.84375q2.125 0 4.328125 1.359375l-1.453125 3.90625q-1.546875 -0.90625 -3.09375 -0.90625q-1.375 0 -2.484375 0.828125q-1.09375 0.828125 -1.5625 2.3125q-0.703125 2.25 -0.703125 4.921875l0 13.03125l-4.21875 0zm32.171875 0l0 -3.140625q-2.359375 3.703125 -6.953125 3.703125q-2.984375 0 -5.484375 -1.640625q-2.484375 -1.640625 -3.859375 -4.578125q-1.375 -2.953125 -1.375 -6.765625q0 -3.734375 1.234375 -6.765625q1.25 -3.03125 3.734375 -4.640625q2.484375 -1.625 5.5625 -1.625q2.25 0 4.0 0.953125q1.765625 0.9375 2.859375 2.46875l0 -12.328125l4.203125 0l0 34.359375l-3.921875 0zm-13.328125 -12.421875q0 4.78125 2.015625 7.15625q2.015625 2.359375 4.75 2.359375q2.765625 0 4.703125 -2.265625q1.9375 -2.265625 1.9375 -6.90625q0 -5.109375 -1.96875 -7.5q-1.96875 -2.390625 -4.859375 -2.390625q-2.8125 0 -4.703125 2.296875q-1.875 2.296875 -1.875 7.25zm23.898438 -17.09375l0 -4.84375l4.21875 0l0 4.84375l-4.21875 0zm0 29.515625l0 -24.890625l4.21875 0l0 24.890625l-4.21875 0zm10.6484375 0l0 -24.890625l3.796875 0l0 3.53125q2.734375 -4.09375 7.921875 -4.09375q2.25 0 4.125 0.8125q1.890625 0.796875 2.828125 2.109375q0.9375 1.3125 1.3125 3.125q0.234375 1.171875 0.234375 4.09375l0 15.3125l-4.21875 0l0 -15.140625q0 -2.578125 -0.5 -3.859375q-0.484375 -1.28125 -1.734375 -2.03125q-1.25 -0.765625 -2.9375 -0.765625q-2.703125 0 -4.65625 1.71875q-1.953125 1.703125 -1.953125 6.484375l0 13.59375l-4.21875 0zm42.929688 -3.078125q-2.34375 2.0 -4.515625 2.828125q-2.15625 0.8125 -4.640625 0.8125q-4.109375 0 -6.3125 -2.0q-2.203125 -2.015625 -2.203125 -5.125q0 -1.828125 0.828125 -3.34375q0.84375 -1.515625 2.1875 -2.421875q1.34375 -0.921875 3.03125 -1.390625q1.25 -0.328125 3.75 -0.625q5.109375 -0.609375 7.53125 -1.453125q0.015625 -0.875 0.015625 -1.109375q0 -2.578125 -1.1875 -3.625q-1.625 -1.4375 -4.8125 -1.4375q-2.96875 0 -4.390625 1.046875q-1.421875 1.046875 -2.09375 3.6875l-4.125 -0.5625q0.5625 -2.640625 1.84375 -4.265625q1.296875 -1.640625 3.734375 -2.515625q2.4375 -0.875 5.640625 -0.875q3.1875 0 5.171875 0.75q2.0 0.75 2.9375 1.890625q0.9375 1.125 1.3125 2.859375q0.21875 1.078125 0.21875 3.890625l0 5.625q0 5.890625 0.265625 7.453125q0.265625 1.546875 1.0625 2.984375l-4.40625 0q-0.65625 -1.3125 -0.84375 -3.078125zm-0.34375 -9.421875q-2.296875 0.9375 -6.890625 1.59375q-2.609375 0.375 -3.6875 0.84375q-1.078125 0.46875 -1.671875 1.375q-0.578125 0.90625 -0.578125 2.0q0 1.6875 1.28125 2.8125q1.28125 1.125 3.734375 1.125q2.4375 0 4.328125 -1.0625q1.90625 -1.0625 2.796875 -2.921875q0.6875 -1.421875 0.6875 -4.21875l0 -1.546875zm10.8203125 -17.015625l0 -4.84375l4.21875 0l0 4.84375l-4.21875 0zm0 29.515625l0 -24.890625l4.21875 0l0 24.890625l-4.21875 0zm10.6015625 0l0 -24.890625l3.796875 0l0 3.765625q1.453125 -2.640625 2.671875 -3.484375q1.234375 -0.84375 2.71875 -0.84375q2.125 0 4.328125 1.359375l-1.453125 3.90625q-1.546875 -0.90625 -3.09375 -0.90625q-1.375 0 -2.484375 0.828125q-1.09375 0.828125 -1.5625 2.3125q-0.703125 2.25 -0.703125 4.921875l0 13.03125l-4.21875 0zm33.0625 -8.015625l4.359375 0.53125q-1.03125 3.828125 -3.828125 5.9375q-2.78125 2.109375 -7.109375 2.109375q-5.46875 0 -8.671875 -3.359375q-3.1875 -3.375 -3.1875 -9.4375q0 -6.28125 3.234375 -9.75q3.234375 -3.46875 8.390625 -3.46875q4.984375 0 8.140625 3.40625q3.171875 3.390625 3.171875 9.546875q0 0.375 -0.015625 1.125l-18.5625 0q0.234375 4.109375 2.3125 6.296875q2.09375 2.171875 5.203125 2.171875q2.328125 0 3.96875 -1.21875q1.640625 -1.21875 2.59375 -3.890625zm-13.84375 -6.828125l13.890625 0q-0.28125 -3.140625 -1.59375 -4.703125q-2.015625 -2.4375 -5.21875 -2.4375q-2.90625 0 -4.890625 1.953125q-1.984375 1.9375 -2.1875 5.1875zm25.757812 6.3125l-1.296875 -18.21875l0 -7.609375l5.234375 0l0 7.609375l-1.21875 18.21875l-2.71875 0zm-1.109375 8.53125l0 -4.8125l4.859375 0l0 4.8125l-4.859375 0z" fill-rule="nonzero"/><path fill="#000000" fill-opacity="0.0" d="m2770.7874 1493.9895l379.21265 0l0 135.74805l-379.21265 0z" fill-rule="evenodd"/><path fill="#0ca4bd" d="m2831.303 1549.0695l0 -34.359375l4.546875 0l0 30.296875l16.921875 0l0 4.0625l-21.46875 0zm43.382812 -8.015625l4.359375 0.53125q-1.03125 3.828125 -3.828125 5.9375q-2.78125 2.109375 -7.109375 2.109375q-5.46875 0 -8.671875 -3.359375q-3.1875 -3.375 -3.1875 -9.4375q0 -6.28125 3.234375 -9.75q3.234375 -3.46875 8.390625 -3.46875q4.984375 0 8.140625 3.40625q3.171875 3.390625 3.171875 9.546875q0 0.375 -0.015625 1.125l-18.5625 0q0.234375 4.109375 2.3125 6.296875q2.09375 2.171875 5.203125 2.171875q2.328125 0 3.96875 -1.21875q1.640625 -1.21875 2.59375 -3.890625zm-13.84375 -6.828125l13.890625 0q-0.28125 -3.140625 -1.59375 -4.703125q-2.015625 -2.4375 -5.21875 -2.4375q-2.90625 0 -4.890625 1.953125q-1.984375 1.9375 -2.1875 5.1875zm32.710938 11.0625l0.609375 3.734375q-1.78125 0.375 -3.1875 0.375q-2.296875 0 -3.5625 -0.71875q-1.265625 -0.734375 -1.78125 -1.921875q-0.515625 -1.1875 -0.515625 -4.984375l0 -14.3125l-3.09375 0l0 -3.28125l3.09375 0l0 -6.171875l4.203125 -2.53125l0 8.703125l4.234375 0l0 3.28125l-4.234375 0l0 14.546875q0 1.8125 0.21875 2.328125q0.21875 0.515625 0.71875 0.828125q0.515625 0.296875 1.453125 0.296875q0.703125 0 1.84375 -0.171875zm3.8671875 -26.03125l0 -4.90625l4.53125 0l0 3.875q0 3.140625 -0.734375 4.515625q-1.0 1.90625 -3.140625 2.859375l-1.03125 -1.65625q1.265625 -0.515625 1.890625 -1.625q0.625 -1.125 0.6875 -3.0625l-2.203125 0zm8.375 22.375l4.171875 -0.65625q0.34375 2.515625 1.953125 3.859375q1.609375 1.328125 4.484375 1.328125q2.90625 0 4.3125 -1.1875q1.40625 -1.1875 1.40625 -2.78125q0 -1.421875 -1.234375 -2.25q-0.875 -0.5625 -4.3125 -1.421875q-4.640625 -1.171875 -6.4375 -2.03125q-1.796875 -0.859375 -2.71875 -2.359375q-0.921875 -1.515625 -0.921875 -3.34375q0 -1.671875 0.75 -3.078125q0.765625 -1.421875 2.078125 -2.359375q0.984375 -0.734375 2.6875 -1.234375q1.703125 -0.5 3.640625 -0.5q2.9375 0 5.140625 0.84375q2.21875 0.84375 3.265625 2.28125q1.0625 1.4375 1.46875 3.859375l-4.125 0.5625q-0.28125 -1.921875 -1.640625 -3.0q-1.34375 -1.078125 -3.796875 -1.078125q-2.90625 0 -4.15625 0.96875q-1.234375 0.953125 -1.234375 2.234375q0 0.828125 0.515625 1.484375q0.515625 0.671875 1.609375 1.125q0.640625 0.234375 3.734375 1.078125q4.46875 1.1875 6.234375 1.953125q1.78125 0.765625 2.78125 2.21875q1.015625 1.453125 1.015625 3.609375q0 2.109375 -1.234375 3.96875q-1.234375 1.859375 -3.5625 2.890625q-2.3125 1.015625 -5.234375 1.015625q-4.859375 0 -7.40625 -2.015625q-2.53125 -2.015625 -3.234375 -5.984375z" fill-rule="nonzero"/><path fill="#0ca4bd" d="m2856.006 1594.6226l4.546875 1.140625q-1.421875 5.609375 -5.140625 8.5625q-3.71875 2.9375 -9.078125 2.9375q-5.5625 0 -9.046875 -2.265625q-3.46875 -2.265625 -5.296875 -6.546875q-1.8125 -4.296875 -1.8125 -9.21875q0 -5.375 2.046875 -9.359375q2.0625 -4.0 5.84375 -6.078125q3.78125 -2.078125 8.328125 -2.078125q5.15625 0 8.671875 2.625q3.515625 2.625 4.90625 7.390625l-4.484375 1.046875q-1.1875 -3.75 -3.46875 -5.453125q-2.265625 -1.71875 -5.71875 -1.71875q-3.953125 0 -6.625 1.90625q-2.65625 1.890625 -3.734375 5.09375q-1.078125 3.203125 -1.078125 6.59375q0 4.390625 1.28125 7.65625q1.28125 3.265625 3.96875 4.890625q2.703125 1.609375 5.84375 1.609375q3.8125 0 6.453125 -2.203125q2.65625 -2.203125 3.59375 -6.53125zm8.0390625 -0.40625q0 -6.90625 3.84375 -10.234375q3.21875 -2.765625 7.828125 -2.765625q5.140625 0 8.390625 3.359375q3.265625 3.359375 3.265625 9.296875q0 4.796875 -1.453125 7.5625q-1.4375 2.75 -4.1875 4.28125q-2.75 1.515625 -6.015625 1.515625q-5.21875 0 -8.453125 -3.34375q-3.21875 -3.359375 -3.21875 -9.671875zm4.34375 0q0 4.78125 2.078125 7.171875q2.09375 2.375 5.25 2.375q3.140625 0 5.21875 -2.390625q2.09375 -2.390625 2.09375 -7.296875q0 -4.609375 -2.09375 -6.984375q-2.09375 -2.390625 -5.21875 -2.390625q-3.15625 0 -5.25 2.375q-2.078125 2.359375 -2.078125 7.140625zm23.929688 12.453125l0 -24.890625l3.796875 0l0 3.53125q2.734375 -4.09375 7.921875 -4.09375q2.25 0 4.125 0.8125q1.890625 0.796875 2.828125 2.109375q0.9375 1.3125 1.3125 3.125q0.234375 1.171875 0.234375 4.09375l0 15.3125l-4.21875 0l0 -15.140625q0 -2.578125 -0.5 -3.859375q-0.484375 -1.28125 -1.734375 -2.03125q-1.25 -0.765625 -2.9375 -0.765625q-2.703125 0 -4.65625 1.71875q-1.953125 1.703125 -1.953125 6.484375l0 13.59375l-4.21875 0zm26.695312 0l0 -24.890625l3.796875 0l0 3.53125q2.734375 -4.09375 7.921875 -4.09375q2.25 0 4.125 0.8125q1.890625 0.796875 2.828125 2.109375q0.9375 1.3125 1.3125 3.125q0.234375 1.171875 0.234375 4.09375l0 15.3125l-4.21875 0l0 -15.140625q0 -2.578125 -0.5 -3.859375q-0.484375 -1.28125 -1.734375 -2.03125q-1.25 -0.765625 -2.9375 -0.765625q-2.703125 0 -4.65625 1.71875q-1.953125 1.703125 -1.953125 6.484375l0 13.59375l-4.21875 0zm43.726562 -8.015625l4.359375 0.53125q-1.03125 3.828125 -3.828125 5.9375q-2.78125 2.109375 -7.109375 2.109375q-5.46875 0 -8.671875 -3.359375q-3.1875 -3.375 -3.1875 -9.4375q0 -6.28125 3.234375 -9.75q3.234375 -3.46875 8.390625 -3.46875q4.984375 0 8.140625 3.40625q3.171875 3.390625 3.171875 9.546875q0 0.375 -0.015625 1.125l-18.5625 0q0.234375 4.109375 2.3125 6.296875q2.09375 2.171875 5.203125 2.171875q2.328125 0 3.96875 -1.21875q1.640625 -1.21875 2.59375 -3.890625zm-13.84375 -6.828125l13.890625 0q-0.28125 -3.140625 -1.59375 -4.703125q-2.015625 -2.4375 -5.21875 -2.4375q-2.90625 0 -4.890625 1.953125q-1.984375 1.9375 -2.1875 5.1875zm39.742188 5.71875l4.15625 0.546875q-0.6875 4.28125 -3.484375 6.71875q-2.796875 2.421875 -6.875 2.421875q-5.109375 0 -8.21875 -3.34375q-3.109375 -3.34375 -3.109375 -9.578125q0 -4.03125 1.328125 -7.046875q1.34375 -3.03125 4.078125 -4.53125q2.734375 -1.515625 5.9375 -1.515625q4.0625 0 6.640625 2.046875q2.578125 2.046875 3.296875 5.828125l-4.09375 0.625q-0.59375 -2.5 -2.078125 -3.765625q-1.484375 -1.265625 -3.59375 -1.265625q-3.1875 0 -5.1875 2.28125q-1.984375 2.28125 -1.984375 7.234375q0 5.015625 1.921875 7.296875q1.921875 2.265625 5.015625 2.265625q2.484375 0 4.140625 -1.515625q1.671875 -1.53125 2.109375 -4.703125zm16.96875 5.34375l0.609375 3.734375q-1.78125 0.375 -3.1875 0.375q-2.296875 0 -3.5625 -0.71875q-1.265625 -0.734375 -1.78125 -1.921875q-0.515625 -1.1875 -0.515625 -4.984375l0 -14.3125l-3.09375 0l0 -3.28125l3.09375 0l0 -6.171875l4.203125 -2.53125l0 8.703125l4.234375 0l0 3.28125l-4.234375 0l0 14.546875q0 1.8125 0.21875 2.328125q0.21875 0.515625 0.71875 0.828125q0.515625 0.296875 1.453125 0.296875q0.703125 0 1.84375 -0.171875zm6.3828125 -4.75l-1.296875 -18.21875l0 -7.609375l5.234375 0l0 7.609375l-1.21875 18.21875l-2.71875 0zm-1.109375 8.53125l0 -4.8125l4.859375 0l0 4.8125l-4.859375 0z" fill-rule="nonzero"/><path fill="#000000" fill-opacity="0.0" d="m2772.4907 1659.4803l-1.6691895 -201.63782" fill-rule="evenodd"/><path stroke="#0ca4bd" stroke-width="4.0" stroke-linejoin="round" stroke-linecap="butt" d="m2772.4907 1659.4803l-1.6691895 -201.63782" fill-rule="evenodd"/><path fill="#000000" fill-opacity="0.0" d="m2428.8005 381.59842l464.12598 4.283478" fill-rule="evenodd"/><path stroke="#0ca4bd" stroke-width="4.0" stroke-linejoin="round" stroke-linecap="butt" d="m2428.8005 381.59842l464.12598 4.283478" fill-rule="evenodd"/><path fill="#000000" fill-opacity="0.0" d="m297.96326 1578.5879l1684.9448 5.322876" fill-rule="evenodd"/><path stroke="#0ca4bd" stroke-width="2.0" stroke-linejoin="round" stroke-linecap="butt" d="m297.96326 1578.5879l1684.9448 5.322876" fill-rule="evenodd"/><path fill="#0ca4bd" d="m214.12599 1556.4517l0 0c0 -6.8479004 5.5513 -12.39917 12.399185 -12.39917l79.10712 0c3.2884827 0 6.4422607 1.3063965 8.767548 3.6315918c2.3253174 2.3253174 3.6316528 5.479126 3.6316528 8.767578l0 49.595337c0 6.8479004 -5.5513 12.39917 -12.3992 12.39917l-79.10712 0c-6.847885 0 -12.399185 -5.5512695 -12.399185 -12.39917z" fill-rule="evenodd"/><path stroke="#000000" stroke-width="1.0" stroke-linejoin="round" stroke-linecap="butt" d="m214.12599 1556.4517l0 0c0 -6.8479004 5.5513 -12.39917 12.399185 -12.39917l79.10712 0c3.2884827 0 6.4422607 1.3063965 8.767548 3.6315918c2.3253174 2.3253174 3.6316528 5.479126 3.6316528 8.767578l0 49.595337c0 6.8479004 -5.5513 12.39917 -12.3992 12.39917l-79.10712 0c-6.847885 0 -12.399185 -5.5512695 -12.399185 -12.39917z" fill-rule="evenodd"/><path fill="#0ca4bd" d="m2892.9265 364.53824l0 0c0 -5.3026123 4.298584 -9.601227 9.601318 -9.601227l64.79736 0c2.5463867 0 4.9885254 1.0115662 6.7890625 2.8121338c1.8007812 1.8005981 2.8122559 4.2427063 2.8122559 6.789093l0 38.40384c0 5.3026123 -4.298584 9.601227 -9.601318 9.601227l-64.79736 0c-5.3027344 0 -9.601318 -4.2986145 -9.601318 -9.601227z" fill-rule="evenodd"/><path stroke="#000000" stroke-width="1.0" stroke-linejoin="round" stroke-linecap="butt" d="m2892.9265 364.53824l0 0c0 -5.3026123 4.298584 -9.601227 9.601318 -9.601227l64.79736 0c2.5463867 0 4.9885254 1.0115662 6.7890625 2.8121338c1.8007812 1.8005981 2.8122559 4.2427063 2.8122559 6.789093l0 38.40384c0 5.3026123 -4.298584 9.601227 -9.601318 9.601227l-64.79736 0c-5.3027344 0 -9.601318 -4.2986145 -9.601318 -9.601227z" fill-rule="evenodd"/><path fill="#0ca4bd" d="m2744.399 1453.3335l0 0c0 -5.0822754 4.120117 -9.2022705 9.202393 -9.2022705l36.80786 0l0 0c2.4406738 0 4.78125 0.9694824 6.50708 2.6953125c1.7258301 1.725708 2.6953125 4.0664062 2.6953125 6.506958l0 55.989136c0 5.0822754 -4.120117 9.2022705 -9.202393 9.2022705l-36.80786 0c-5.0822754 0 -9.202393 -4.119995 -9.202393 -9.2022705z" fill-rule="evenodd"/><path stroke="#000000" stroke-width="1.0" stroke-linejoin="round" stroke-linecap="butt" d="m2744.399 1453.3335l0 0c0 -5.0822754 4.120117 -9.2022705 9.202393 -9.2022705l36.80786 0l0 0c2.4406738 0 4.78125 0.9694824 6.50708 2.6953125c1.7258301 1.725708 2.6953125 4.0664062 2.6953125 6.506958l0 55.989136c0 5.0822754 -4.120117 9.2022705 -9.202393 9.2022705l-36.80786 0c-5.0822754 0 -9.202393 -4.119995 -9.202393 -9.2022705z" fill-rule="evenodd"/></g></svg>