<svg version="1.1" viewBox="0.0 0.0 3150.0 1800.0" fill="none" stroke="none" stroke-linecap="square" stroke-miterlimit="10" xmlns:xlink="http://www.w3.org/1999/xlink" xmlns="http://www.w3.org/2000/svg"><clipPath id="p.0"><path d="m0 0l3150.0 0l0 1800.0l-3150.0 0l0 -1800.0z" clip-rule="nonzero"/></clipPath><g clip-path="url(#p.0)"><path fill="#000000" fill-opacity="0.0" d="m0 0l3150.0 0l0 1800.0l-3150.0 0z" fill-rule="evenodd"/><path fill="#000000" fill-opacity="0.0" d="m244.80052 230.39896l554.3937 0l0 96.944885l-554.3937 0z" fill-rule="evenodd"/><path fill="#0ca4bd" d="m290.0818 295.7452q-2.03125 2.34375 -4.546875 3.765625q-2.515625 1.421875 -5.046875 1.421875q-2.78125 0 -5.40625 -1.625q-2.625 -1.625 -4.265625 -5.0q-1.640625 -3.375 -1.640625 -7.40625q0 -4.96875 2.546875 -9.953125q2.546875 -4.984375 6.328125 -7.484375q3.78125 -2.5 7.34375 -2.5q2.71875 0 5.1875 1.421875q2.46875 1.421875 4.25 4.328125l1.0625 -4.84375l5.59375 0l-4.5 20.96875q-0.9375 4.375 -0.9375 4.84375q0 0.84375 0.640625 1.453125q0.640625 0.609375 1.546875 0.609375q1.65625 0 4.34375 -1.90625q3.5625 -2.5 5.640625 -6.703125q2.078125 -4.203125 2.078125 -8.671875q0 -5.21875 -2.671875 -9.75q-2.671875 -4.53125 -7.96875 -7.25q-5.296875 -2.71875 -11.703125 -2.71875q-7.3125 0 -13.359375 3.421875q-6.046875 3.421875 -9.375 9.8125q-3.328125 6.390625 -3.328125 13.703125q0 7.65625 3.328125 13.1875q3.328125 5.53125 9.625 8.171875q6.296875 2.640625 13.953125 2.640625q8.1875 0 13.71875 -2.75q5.53125 -2.75 8.28125 -6.6875l5.65625 0q-1.59375 3.28125 -5.46875 6.6875q-3.875 3.40625 -9.21875 5.390625q-5.34375 1.984375 -12.875 1.984375q-6.9375 0 -12.796875 -1.78125q-5.859375 -1.78125 -9.984375 -5.359375q-4.125 -3.578125 -6.21875 -8.234375q-2.625 -5.90625 -2.625 -12.75q0 -7.625 3.125 -14.53125q3.8125 -8.46875 10.828125 -12.96875q7.015625 -4.5 17.015625 -4.5q7.75 0 13.921875 3.171875q6.171875 3.171875 9.734375 9.453125q3.03125 5.40625 3.03125 11.75q0 9.0625 -6.375 16.09375q-5.6875 6.3125 -12.4375 6.3125q-2.15625 0 -3.484375 -0.65625q-1.328125 -0.65625 -1.953125 -1.875q-0.40625 -0.78125 -0.59375 -2.6875zm-15.125 -8.46875q0 4.28125 2.03125 6.65625q2.03125 2.375 4.65625 2.375q1.75 0 3.6875 -1.046875q1.9375 -1.046875 3.703125 -3.109375q1.765625 -2.0625 2.890625 -5.234375q1.125 -3.171875 1.125 -6.359375q0 -4.25 -2.109375 -6.59375q-2.109375 -2.34375 -5.140625 -2.34375q-2.0 0 -3.765625 1.015625q-1.765625 1.015625 -3.421875 3.265625q-1.65625 2.25 -2.65625 5.46875q-1.0 3.21875 -1.0 5.90625zm48.75 13.5625l0 -45.8125l15.78125 0q5.34375 0 8.15625 0.65625q3.9375 0.90625 6.71875 3.28125q3.625 3.0625 5.421875 7.828125q1.796875 4.765625 1.796875 10.890625q0 5.21875 -1.21875 9.25q-1.21875 4.03125 -3.125 6.671875q-1.90625 2.640625 -4.171875 4.15625q-2.265625 1.515625 -5.46875 2.296875q-3.203125 0.78125 -7.359375 0.78125l-16.53125 0zm6.0625 -5.40625l9.78125 0q4.53125 0 7.109375 -0.84375q2.578125 -0.84375 4.109375 -2.375q2.15625 -2.15625 3.359375 -5.796875q1.203125 -3.640625 1.203125 -8.828125q0 -7.1875 -2.359375 -11.046875q-2.359375 -3.859375 -5.734375 -5.171875q-2.4375 -0.9375 -7.84375 -0.9375l-9.625 0l0 35.0zm62.15625 -5.28125l5.8125 0.71875q-1.375 5.09375 -5.09375 7.90625q-3.71875 2.8125 -9.5 2.8125q-7.28125 0 -11.546875 -4.484375q-4.265625 -4.484375 -4.265625 -12.578125q0 -8.375 4.3125 -13.0q4.3125 -4.625 11.1875 -4.625q6.65625 0 10.875 4.53125q4.21875 4.53125 4.21875 12.75q0 0.5 -0.03125 1.5l-24.75 0q0.3125 5.46875 3.09375 8.375q2.78125 2.90625 6.9375 2.90625q3.09375 0 5.28125 -1.625q2.1875 -1.625 3.46875 -5.1875zm-18.46875 -9.09375l18.53125 0q-0.375 -4.1875 -2.125 -6.28125q-2.6875 -3.25 -6.96875 -3.25q-3.875 0 -6.515625 2.59375q-2.640625 2.59375 -2.921875 6.9375zm40.5625 19.78125l-12.625 -33.1875l5.9375 0l7.125 19.875q1.15625 3.21875 2.125 6.6875q0.75 -2.625 2.09375 -6.3125l7.375 -20.25l5.78125 0l-12.5625 33.1875l-5.25 0zm18.46875 0l17.59375 -45.8125l6.53125 0l18.75 45.8125l-6.90625 0l-5.34375 -13.875l-19.15625 0l-5.03125 13.875l-6.4375 0zm13.21875 -18.8125l15.53125 0l-4.78125 -12.6875q-2.1875 -5.78125 -3.25 -9.5q-0.875 4.40625 -2.46875 8.75l-5.03125 13.4375zm33.78125 18.8125l0 -33.1875l5.03125 0l0 4.65625q1.5625 -2.4375 4.15625 -3.921875q2.59375 -1.484375 5.90625 -1.484375q3.6875 0 6.046875 1.53125q2.359375 1.53125 3.328125 4.28125q3.9375 -5.8125 10.25 -5.8125q4.9375 0 7.59375 2.734375q2.65625 2.734375 2.65625 8.421875l0 22.78125l-5.59375 0l0 -20.90625q0 -3.375 -0.546875 -4.859375q-0.546875 -1.484375 -1.984375 -2.390625q-1.4375 -0.90625 -3.375 -0.90625q-3.5 0 -5.8125 2.328125q-2.3125 2.328125 -2.3125 7.453125l0 19.28125l-5.625 0l0 -21.5625q0 -3.75 -1.375 -5.625q-1.375 -1.875 -4.5 -1.875q-2.375 0 -4.390625 1.25q-2.015625 1.25 -2.921875 3.65625q-0.90625 2.40625 -0.90625 6.9375l0 17.21875l-5.625 0zm76.03125 -10.6875l5.8125 0.71875q-1.375 5.09375 -5.09375 7.90625q-3.71875 2.8125 -9.5 2.8125q-7.28125 0 -11.546875 -4.484375q-4.265625 -4.484375 -4.265625 -12.578125q0 -8.375 4.3125 -13.0q4.3125 -4.625 11.1875 -4.625q6.65625 0 10.875 4.53125q4.21875 4.53125 4.21875 12.75q0 0.5 -0.03125 1.5l-24.75 0q0.3125 5.46875 3.09375 8.375q2.78125 2.90625 6.9375 2.90625q3.09375 0 5.28125 -1.625q2.1875 -1.625 3.46875 -5.1875zm-18.46875 -9.09375l18.53125 0q-0.375 -4.1875 -2.125 -6.28125q-2.6875 -3.25 -6.96875 -3.25q-3.875 0 -6.515625 2.59375q-2.640625 2.59375 -2.921875 6.9375zm54.0625 9.09375l5.8125 0.71875q-1.375 5.09375 -5.09375 7.90625q-3.71875 2.8125 -9.5 2.8125q-7.28125 0 -11.546875 -4.484375q-4.265625 -4.484375 -4.265625 -12.578125q0 -8.375 4.3125 -13.0q4.3125 -4.625 11.1875 -4.625q6.65625 0 10.875 4.53125q4.21875 4.53125 4.21875 12.75q0 0.5 -0.03125 1.5l-24.75 0q0.3125 5.46875 3.09375 8.375q2.78125 2.90625 6.9375 2.90625q3.09375 0 5.28125 -1.625q2.1875 -1.625 3.46875 -5.1875zm-18.46875 -9.09375l18.53125 0q-0.375 -4.1875 -2.125 -6.28125q-2.6875 -3.25 -6.96875 -3.25q-3.875 0 -6.515625 2.59375q-2.640625 2.59375 -2.921875 6.9375zm31.34375 19.78125l0 -33.1875l5.0625 0l0 4.71875q3.65625 -5.46875 10.5625 -5.46875q3.0 0 5.515625 1.078125q2.515625 1.078125 3.765625 2.828125q1.25 1.75 1.75 4.15625q0.3125 1.5625 0.3125 5.46875l0 20.40625l-5.625 0l0 -20.1875q0 -3.4375 -0.65625 -5.140625q-0.65625 -1.703125 -2.328125 -2.71875q-1.671875 -1.015625 -3.921875 -1.015625q-3.59375 0 -6.203125 2.28125q-2.609375 2.28125 -2.609375 8.65625l0 18.125l-5.625 0zm36.125 0l0 -45.8125l9.125 0l10.84375 32.4375q1.5 4.53125 2.1875 6.78125q0.78125 -2.5 2.4375 -7.34375l10.96875 -31.875l8.15625 0l0 45.8125l-5.84375 0l0 -38.34375l-13.3125 38.34375l-5.46875 0l-13.25 -39.0l0 39.0l-5.84375 0z" fill-rule="nonzero"/><path fill="#000000" fill-opacity="0.0" d="m271.19946 595.19946l2119.2126 0l0 407.24408l-2119.2126 0z" fill-rule="evenodd"/><path fill="#0ca4bd" d="m293.01196 757.79944l0 -114.53125l15.15625 0l0 47.03125l59.53125 0l0 -47.03125l15.15625 0l0 114.53125l-15.15625 0l0 -53.984375l-59.53125 0l0 53.984375l-15.15625 0zm170.07812 -26.71875l14.53125 1.796875q-3.4375 12.734375 -12.734375 19.765625q-9.296875 7.03125 -23.75 7.03125q-18.203125 0 -28.875 -11.203125q-10.65625 -11.21875 -10.65625 -31.453125q0 -20.9375 10.78125 -32.5q10.78125 -11.5625 27.96875 -11.5625q16.640625 0 27.1875 11.328125q10.546875 11.328125 10.546875 31.875q0 1.25 -0.078125 3.75l-61.875 0q0.78125 13.671875 7.734375 20.9375q6.953125 7.265625 17.34375 7.265625q7.734375 0 13.203125 -4.0625q5.46875 -4.0625 8.671875 -12.96875zm-46.171875 -22.734375l46.328125 0q-0.9375 -10.46875 -5.3125 -15.703125q-6.71875 -8.125 -17.421875 -8.125q-9.6875 0 -16.296875 6.484375q-6.59375 6.484375 -7.296875 17.34375zm78.046875 49.453125l0 -114.53125l14.0625 0l0 114.53125l-14.0625 0zm35.546875 0l0 -114.53125l14.0625 0l0 114.53125l-14.0625 0zm30.625 -41.484375q0 -23.046875 12.8125 -34.140625q10.703125 -9.21875 26.09375 -9.21875q17.109375 0 27.96875 11.21875q10.859375 11.203125 10.859375 30.96875q0 16.015625 -4.8125 25.203125q-4.796875 9.171875 -13.984375 14.25q-9.171875 5.078125 -20.03125 5.078125q-17.421875 0 -28.171875 -11.171875q-10.734375 -11.171875 -10.734375 -32.1875zm14.453125 0q0 15.9375 6.953125 23.875q6.953125 7.921875 17.5 7.921875q10.46875 0 17.421875 -7.96875q6.953125 -7.96875 6.953125 -24.296875q0 -15.390625 -7.0 -23.3125q-6.984375 -7.9375 -17.375 -7.9375q-10.546875 0 -17.5 7.890625q-6.953125 7.890625 -6.953125 23.828125zm139.53125 41.484375l-25.390625 -82.96875l14.53125 0l13.203125 47.890625l4.921875 17.8125q0.3125 -1.328125 4.296875 -17.109375l13.203125 -48.59375l14.453125 0l12.421875 48.125l4.140625 15.859375l4.765625 -16.015625l14.21875 -47.96875l13.671875 0l-25.9375 82.96875l-14.609375 0l-13.203125 -49.6875l-3.203125 -14.140625l-16.796875 63.828125l-14.6875 0zm95.0 -41.484375q0 -23.046875 12.8125 -34.140625q10.703125 -9.21875 26.09375 -9.21875q17.109375 0 27.96875 11.21875q10.859375 11.203125 10.859375 30.96875q0 16.015625 -4.8125 25.203125q-4.796875 9.171875 -13.984375 14.25q-9.171875 5.078125 -20.03125 5.078125q-17.421875 0 -28.171875 -11.171875q-10.734375 -11.171875 -10.734375 -32.1875zm14.453125 0q0 15.9375 6.953125 23.875q6.953125 7.921875 17.5 7.921875q10.46875 0 17.421875 -7.96875q6.953125 -7.96875 6.953125 -24.296875q0 -15.390625 -7.0 -23.3125q-6.984375 -7.9375 -17.375 -7.9375q-10.546875 0 -17.5 7.890625q-6.953125 7.890625 -6.953125 23.828125zm79.609375 41.484375l0 -82.96875l12.65625 0l0 12.578125q4.84375 -8.828125 8.9375 -11.640625q4.109375 -2.8125 9.03125 -2.8125q7.109375 0 14.453125 4.53125l-4.84375 13.046875q-5.15625 -3.046875 -10.3125 -3.046875q-4.609375 0 -8.28125 2.78125q-3.671875 2.765625 -5.234375 7.6875q-2.34375 7.5 -2.34375 16.40625l0 43.4375l-14.0625 0zm53.125 0l0 -114.53125l14.0625 0l0 114.53125l-14.0625 0zm89.6875 0l0 -10.46875q-7.890625 12.34375 -23.203125 12.34375q-9.921875 0 -18.25 -5.46875q-8.3125 -5.46875 -12.890625 -15.265625q-4.5625 -9.8125 -4.5625 -22.546875q0 -12.421875 4.140625 -22.53125q4.140625 -10.125 12.421875 -15.515625q8.28125 -5.390625 18.515625 -5.390625q7.5 0 13.359375 3.171875q5.859375 3.15625 9.53125 8.234375l0 -41.09375l13.984375 0l0 114.53125l-13.046875 0zm-44.453125 -41.40625q0 15.9375 6.71875 23.828125q6.71875 7.890625 15.859375 7.890625q9.21875 0 15.65625 -7.53125q6.453125 -7.546875 6.453125 -23.015625q0 -17.03125 -6.5625 -25.0q-6.5625 -7.96875 -16.171875 -7.96875q-9.375 0 -15.671875 7.65625q-6.28125 7.65625 -6.28125 24.140625zm87.109375 12.96875l-4.296875 -60.703125l0 -25.390625l17.421875 0l0 25.390625l-4.0625 60.703125l-9.0625 0zm-3.671875 28.4375l0 -16.015625l16.171875 0l0 16.015625l-16.171875 0z" fill-rule="nonzero"/><path fill="#0ca4bd" d="m295.12134 949.79944l0 -114.53125l15.15625 0l0 114.53125l-15.15625 0zm39.21875 -99.375l0 -16.328125l15.078125 0l0 12.890625q0 10.46875 -2.421875 15.078125q-3.359375 6.328125 -10.46875 9.53125l-3.4375 -5.546875q4.21875 -1.71875 6.28125 -5.421875q2.078125 -3.71875 2.3125 -10.203125l-7.34375 0zm36.40625 99.375l0 -82.96875l12.578125 0l0 11.640625q3.90625 -6.09375 10.390625 -9.796875q6.484375 -3.71875 14.765625 -3.71875q9.21875 0 15.109375 3.828125q5.90625 3.828125 8.328125 10.703125q9.84375 -14.53125 25.625 -14.53125q12.34375 0 18.984375 6.84375q6.640625 6.828125 6.640625 21.046875l0 56.953125l-13.984375 0l0 -52.265625q0 -8.4375 -1.375 -12.140625q-1.359375 -3.71875 -4.953125 -5.984375q-3.59375 -2.265625 -8.4375 -2.265625q-8.75 0 -14.53125 5.828125q-5.78125 5.8125 -5.78125 18.625l0 48.203125l-14.0625 0l0 -53.90625q0 -9.375 -3.4375 -14.0625q-3.4375 -4.6875 -11.25 -4.6875q-5.9375 0 -10.984375 3.125q-5.03125 3.125 -7.296875 9.140625q-2.265625 6.015625 -2.265625 17.34375l0 43.046875l-14.0625 0zm175.9375 -50.078125l0 -13.125l75.859375 -32.03125l0 13.984375l-60.15625 24.6875l60.15625 24.921875l0 13.984375l-75.859375 -32.421875zm97.03125 50.078125l0 -114.53125l39.453125 0q13.359375 0 20.390625 1.640625q9.84375 2.265625 16.796875 8.203125q9.0625 7.65625 13.546875 19.578125q4.5 11.90625 4.5 27.21875q0 13.046875 -3.046875 23.125q-3.046875 10.078125 -7.8125 16.6875q-4.765625 6.59375 -10.4375 10.390625q-5.65625 3.78125 -13.671875 5.734375q-8.0 1.953125 -18.390625 1.953125l-41.328125 0zm15.15625 -13.515625l24.453125 0q11.328125 0 17.765625 -2.109375q6.453125 -2.109375 10.28125 -5.9375q5.390625 -5.390625 8.390625 -14.484375q3.015625 -9.109375 3.015625 -22.078125q0 -17.96875 -5.90625 -27.609375q-5.890625 -9.65625 -14.328125 -12.9375q-6.09375 -2.34375 -19.609375 -2.34375l-24.0625 0l0 87.5zm155.39062 -13.203125l14.53125 1.796875q-3.4375 12.734375 -12.734375 19.765625q-9.296875 7.03125 -23.75 7.03125q-18.203125 0 -28.875 -11.203125q-10.65625 -11.21875 -10.65625 -31.453125q0 -20.9375 10.78125 -32.5q10.78125 -11.5625 27.96875 -11.5625q16.640625 0 27.1875 11.328125q10.546875 11.328125 10.546875 31.875q0 1.25 -0.078125 3.75l-61.875 0q0.78125 13.671875 7.734375 20.9375q6.953125 7.265625 17.34375 7.265625q7.734375 0 13.203125 -4.0625q5.46875 -4.0625 8.671875 -12.96875zm-46.171875 -22.734375l46.328125 0q-0.9375 -10.46875 -5.3125 -15.703125q-6.71875 -8.125 -17.421875 -8.125q-9.6875 0 -16.296875 6.484375q-6.59375 6.484375 -7.296875 17.34375zm101.40625 49.453125l-31.5625 -82.96875l14.84375 0l17.8125 49.6875q2.890625 8.046875 5.3125 16.71875q1.875 -6.5625 5.234375 -15.78125l18.4375 -50.625l14.453125 0l-31.40625 82.96875l-13.125 0zm43.984375 31.796875l0 -10.15625l93.203125 0l0 10.15625l-93.203125 0zm91.171875 -31.796875l43.984375 -114.53125l16.328125 0l46.875 114.53125l-17.265625 0l-13.359375 -34.6875l-47.890625 0l-12.578125 34.6875l-16.09375 0zm33.046875 -47.03125l38.828125 0l-11.953125 -31.71875q-5.46875 -14.453125 -8.125 -23.75q-2.1875 11.015625 -6.171875 21.875l-12.578125 33.59375zm84.453125 47.03125l0 -82.96875l12.578125 0l0 11.640625q3.90625 -6.09375 10.390625 -9.796875q6.484375 -3.71875 14.765625 -3.71875q9.21875 0 15.109375 3.828125q5.90625 3.828125 8.328125 10.703125q9.84375 -14.53125 25.625 -14.53125q12.34375 0 18.984375 6.84375q6.640625 6.828125 6.640625 21.046875l0 56.953125l-13.984375 0l0 -52.265625q0 -8.4375 -1.375 -12.140625q-1.359375 -3.71875 -4.953125 -5.984375q-3.59375 -2.265625 -8.4375 -2.265625q-8.75 0 -14.53125 5.828125q-5.78125 5.8125 -5.78125 18.625l0 48.203125l-14.0625 0l0 -53.90625q0 -9.375 -3.4375 -14.0625q-3.4375 -4.6875 -11.25 -4.6875q-5.9375 0 -10.984375 3.125q-5.03125 3.125 -7.296875 9.140625q-2.265625 6.015625 -2.265625 17.34375l0 43.046875l-14.0625 0zm190.07812 -26.71875l14.53125 1.796875q-3.4375 12.734375 -12.734375 19.765625q-9.296875 7.03125 -23.75 7.03125q-18.203125 0 -28.875 -11.203125q-10.65625 -11.21875 -10.65625 -31.453125q0 -20.9375 10.78125 -32.5q10.78125 -11.5625 27.96875 -11.5625q16.640625 0 27.1875 11.328125q10.546875 11.328125 10.546875 31.875q0 1.25 -0.078125 3.75l-61.875 0q0.78125 13.671875 7.734375 20.9375q6.953125 7.265625 17.34375 7.265625q7.734375 0 13.203125 -4.0625q5.46875 -4.0625 8.671875 -12.96875zm-46.171875 -22.734375l46.328125 0q-0.9375 -10.46875 -5.3125 -15.703125q-6.71875 -8.125 -17.421875 -8.125q-9.6875 0 -16.296875 6.484375q-6.59375 6.484375 -7.296875 17.34375zm135.15625 22.734375l14.53125 1.796875q-3.4375 12.734375 -12.734375 19.765625q-9.296875 7.03125 -23.75 7.03125q-18.203125 0 -28.875 -11.203125q-10.65625 -11.21875 -10.65625 -31.453125q0 -20.9375 10.78125 -32.5q10.78125 -11.5625 27.96875 -11.5625q16.640625 0 27.1875 11.328125q10.546875 11.328125 10.546875 31.875q0 1.25 -0.078125 3.75l-61.875 0q0.78125 13.671875 7.734375 20.9375q6.953125 7.265625 17.34375 7.265625q7.734375 0 13.203125 -4.0625q5.46875 -4.0625 8.671875 -12.96875zm-46.171875 -22.734375l46.328125 0q-0.9375 -10.46875 -5.3125 -15.703125q-6.71875 -8.125 -17.421875 -8.125q-9.6875 0 -16.296875 6.484375q-6.59375 6.484375 -7.296875 17.34375zm78.359375 49.453125l0 -82.96875l12.65625 0l0 11.796875q9.140625 -13.671875 26.40625 -13.671875q7.5 0 13.78125 2.703125q6.296875 2.6875 9.421875 7.0625q3.125 4.375 4.375 10.390625q0.78125 3.90625 0.78125 13.671875l0 51.015625l-14.0625 0l0 -50.46875q0 -8.59375 -1.640625 -12.84375q-1.640625 -4.265625 -5.828125 -6.796875q-4.171875 -2.546875 -9.796875 -2.546875q-8.984375 0 -15.515625 5.703125q-6.515625 5.703125 -6.515625 21.640625l0 45.3125l-14.0625 0zm163.04688 -50.078125l-75.859375 32.421875l0 -13.984375l60.078125 -24.921875l-60.078125 -24.6875l0 -13.984375l75.859375 32.03125l0 13.125z" fill-rule="nonzero"/><path fill="#000000" fill-opacity="0.0" d="m2462.399 194.39896l619.21265 0l0 174.51968l-619.21265 0z" fill-rule="evenodd"/><path fill="#0ca4bd" d="m2474.274 250.12021l5.71875 -0.5q0.40625 3.4375 1.890625 5.640625q1.484375 2.203125 4.609375 3.5625q3.125 1.359375 7.03125 1.359375q3.46875 0 6.125 -1.03125q2.65625 -1.03125 3.953125 -2.828125q1.296875 -1.796875 1.296875 -3.921875q0 -2.15625 -1.25 -3.765625q-1.25 -1.609375 -4.125 -2.703125q-1.84375 -0.71875 -8.15625 -2.234375q-6.3125 -1.515625 -8.84375 -2.859375q-3.28125 -1.71875 -4.890625 -4.265625q-1.609375 -2.546875 -1.609375 -5.703125q0 -3.46875 1.96875 -6.484375q1.96875 -3.015625 5.75 -4.578125q3.78125 -1.5625 8.40625 -1.5625q5.09375 0 8.984375 1.640625q3.890625 1.640625 5.984375 4.828125q2.09375 3.1875 2.25 7.21875l-5.8125 0.4375q-0.46875 -4.34375 -3.171875 -6.5625q-2.703125 -2.21875 -7.984375 -2.21875q-5.5 0 -8.015625 2.015625q-2.515625 2.015625 -2.515625 4.859375q0 2.46875 1.78125 4.0625q1.75 1.59375 9.140625 3.265625q7.390625 1.671875 10.140625 2.921875q4.0 1.84375 5.90625 4.671875q1.90625 2.828125 1.90625 6.515625q0 3.65625 -2.09375 6.890625q-2.09375 3.234375 -6.015625 5.03125q-3.921875 1.796875 -8.828125 1.796875q-6.21875 0 -10.421875 -1.8125q-4.203125 -1.8125 -6.59375 -5.453125q-2.390625 -3.640625 -2.515625 -8.234375zm41.9375 -1.875q0 -9.21875 5.125 -13.65625q4.28125 -3.6875 10.4375 -3.6875q6.84375 0 11.1875 4.484375q4.34375 4.484375 4.34375 12.390625q0 6.40625 -1.921875 10.078125q-1.921875 3.671875 -5.59375 5.703125q-3.671875 2.03125 -8.015625 2.03125q-6.96875 0 -11.265625 -4.46875q-4.296875 -4.46875 -4.296875 -12.875zm5.78125 0q0 6.375 2.78125 9.546875q2.78125 3.171875 7.0 3.171875q4.1875 0 6.96875 -3.1875q2.78125 -3.1875 2.78125 -9.71875q0 -6.15625 -2.796875 -9.328125q-2.796875 -3.171875 -6.953125 -3.171875q-4.21875 0 -7.0 3.15625q-2.78125 3.15625 -2.78125 9.53125zm33.25 16.59375l0 -28.8125l-4.96875 0l0 -4.375l4.96875 0l0 -3.53125q0 -3.34375 0.59375 -4.96875q0.8125 -2.1875 2.859375 -3.546875q2.046875 -1.359375 5.734375 -1.359375q2.375 0 5.25 0.5625l-0.84375 4.90625q-1.75 -0.3125 -3.3125 -0.3125q-2.5625 0 -3.625 1.09375q-1.0625 1.09375 -1.0625 4.09375l0 3.0625l6.46875 0l0 4.375l-6.46875 0l0 28.8125l-5.59375 0zm28.71875 -5.03125l0.8125 4.96875q-2.375 0.5 -4.25 0.5q-3.0625 0 -4.75 -0.96875q-1.6875 -0.96875 -2.375 -2.546875q-0.6875 -1.578125 -0.6875 -6.640625l0 -19.09375l-4.125 0l0 -4.375l4.125 0l0 -8.21875l5.59375 -3.375l0 11.59375l5.65625 0l0 4.375l-5.65625 0l0 19.40625q0 2.40625 0.296875 3.09375q0.296875 0.6875 0.96875 1.09375q0.671875 0.40625 1.921875 0.40625q0.9375 0 2.46875 -0.21875zm11.625 5.03125l-10.15625 -33.1875l5.8125 0l5.28125 19.15625l1.96875 7.125q0.125 -0.53125 1.71875 -6.84375l5.28125 -19.4375l5.78125 0l4.96875 19.25l1.65625 6.34375l1.90625 -6.40625l5.6875 -19.1875l5.46875 0l-10.375 33.1875l-5.84375 0l-5.28125 -19.875l-1.28125 -5.65625l-6.71875 25.53125l-5.875 0zm61.75 -4.09375q-3.125 2.65625 -6.015625 3.75q-2.890625 1.09375 -6.203125 1.09375q-5.46875 0 -8.40625 -2.671875q-2.9375 -2.671875 -2.9375 -6.828125q0 -2.4375 1.109375 -4.453125q1.109375 -2.015625 2.90625 -3.234375q1.796875 -1.21875 4.046875 -1.84375q1.65625 -0.4375 5.0 -0.84375q6.8125 -0.8125 10.03125 -1.9375q0.03125 -1.15625 0.03125 -1.46875q0 -3.4375 -1.59375 -4.84375q-2.15625 -1.90625 -6.40625 -1.90625q-3.96875 0 -5.859375 1.390625q-1.890625 1.390625 -2.796875 4.921875l-5.5 -0.75q0.75 -3.53125 2.46875 -5.703125q1.71875 -2.171875 4.96875 -3.34375q3.25 -1.171875 7.53125 -1.171875q4.25 0 6.90625 1.0q2.65625 1.0 3.90625 2.515625q1.25 1.515625 1.75 3.828125q0.28125 1.4375 0.28125 5.1875l0 7.5q0 7.84375 0.359375 9.921875q0.359375 2.078125 1.421875 3.984375l-5.875 0q-0.875 -1.75 -1.125 -4.09375zm-0.46875 -12.5625q-3.0625 1.25 -9.1875 2.125q-3.46875 0.5 -4.90625 1.125q-1.4375 0.625 -2.21875 1.828125q-0.78125 1.203125 -0.78125 2.671875q0 2.25 1.703125 3.75q1.703125 1.5 4.984375 1.5q3.25 0 5.78125 -1.421875q2.53125 -1.421875 3.71875 -3.890625q0.90625 -1.90625 0.90625 -5.625l0 -2.0625zm14.34375 16.65625l0 -33.1875l5.0625 0l0 5.03125q1.9375 -3.53125 3.578125 -4.65625q1.640625 -1.125 3.609375 -1.125q2.84375 0 5.78125 1.8125l-1.9375 5.21875q-2.0625 -1.21875 -4.125 -1.21875q-1.84375 0 -3.3125 1.109375q-1.46875 1.109375 -2.09375 3.078125q-0.9375 3.0 -0.9375 6.5625l0 17.375l-5.625 0zm44.09375 -10.6875l5.8125 0.71875q-1.375 5.09375 -5.09375 7.90625q-3.71875 2.8125 -9.5 2.8125q-7.28125 0 -11.546875 -4.484375q-4.265625 -4.484375 -4.265625 -12.578125q0 -8.375 4.3125 -13.0q4.3125 -4.625 11.1875 -4.625q6.65625 0 10.875 4.53125q4.21875 4.53125 4.21875 12.75q0 0.5 -0.03125 1.5l-24.75 0q0.3125 5.46875 3.09375 8.375q2.78125 2.90625 6.9375 2.90625q3.09375 0 5.28125 -1.625q2.1875 -1.625 3.46875 -5.1875zm-18.46875 -9.09375l18.53125 0q-0.375 -4.1875 -2.125 -6.28125q-2.6875 -3.25 -6.96875 -3.25q-3.875 0 -6.515625 2.59375q-2.640625 2.59375 -2.921875 6.9375zm49.96875 19.78125l0 -45.8125l33.125 0l0 5.40625l-27.0625 0l0 14.03125l25.34375 0l0 5.375l-25.34375 0l0 15.59375l28.125 0l0 5.40625l-34.1875 0zm41.84375 0l0 -33.1875l5.0625 0l0 4.71875q3.65625 -5.46875 10.5625 -5.46875q3.0 0 5.515625 1.078125q2.515625 1.078125 3.765625 2.828125q1.25 1.75 1.75 4.15625q0.3125 1.5625 0.3125 5.46875l0 20.40625l-5.625 0l0 -20.1875q0 -3.4375 -0.65625 -5.140625q-0.65625 -1.703125 -2.328125 -2.71875q-1.671875 -1.015625 -3.921875 -1.015625q-3.59375 0 -6.203125 2.28125q-2.609375 2.28125 -2.609375 8.65625l0 18.125l-5.625 0zm34.5625 2.75l5.46875 0.8125q0.34375 2.53125 1.90625 3.6875q2.09375 1.5625 5.71875 1.5625q3.90625 0 6.03125 -1.5625q2.125 -1.5625 2.875 -4.375q0.4375 -1.71875 0.40625 -7.21875q-3.6875 4.34375 -9.1875 4.34375q-6.84375 0 -10.59375 -4.9375q-3.75 -4.9375 -3.75 -11.84375q0 -4.75 1.71875 -8.765625q1.71875 -4.015625 4.984375 -6.203125q3.265625 -2.1875 7.671875 -2.1875q5.875 0 9.6875 4.75l0 -4.0l5.1875 0l0 28.6875q0 7.75 -1.578125 10.984375q-1.578125 3.234375 -5.0 5.109375q-3.421875 1.875 -8.421875 1.875q-5.9375 0 -9.59375 -2.671875q-3.65625 -2.671875 -3.53125 -8.046875zm4.65625 -19.9375q0 6.53125 2.59375 9.53125q2.59375 3.0 6.5 3.0q3.875 0 6.5 -2.984375q2.625 -2.984375 2.625 -9.359375q0 -6.09375 -2.703125 -9.1875q-2.703125 -3.09375 -6.515625 -3.09375q-3.75 0 -6.375 3.046875q-2.625 3.046875 -2.625 9.046875zm32.0 -22.15625l0 -6.46875l5.625 0l0 6.46875l-5.625 0zm0 39.34375l0 -33.1875l5.625 0l0 33.1875l-5.625 0zm14.1875 0l0 -33.1875l5.0625 0l0 4.71875q3.65625 -5.46875 10.5625 -5.46875q3.0 0 5.515625 1.078125q2.515625 1.078125 3.765625 2.828125q1.25 1.75 1.75 4.15625q0.3125 1.5625 0.3125 5.46875l0 20.40625l-5.625 0l0 -20.1875q0 -3.4375 -0.65625 -5.140625q-0.65625 -1.703125 -2.328125 -2.71875q-1.671875 -1.015625 -3.921875 -1.015625q-3.59375 0 -6.203125 2.28125q-2.609375 2.28125 -2.609375 8.65625l0 18.125l-5.625 0zm58.3125 -10.6875l5.8125 0.71875q-1.375 5.09375 -5.09375 7.90625q-3.71875 2.8125 -9.5 2.8125q-7.28125 0 -11.546875 -4.484375q-4.265625 -4.484375 -4.265625 -12.578125q0 -8.375 4.3125 -13.0q4.3125 -4.625 11.1875 -4.625q6.65625 0 10.875 4.53125q4.21875 4.53125 4.21875 12.75q0 0.5 -0.03125 1.5l-24.75 0q0.3125 5.46875 3.09375 8.375q2.78125 2.90625 6.9375 2.90625q3.09375 0 5.28125 -1.625q2.1875 -1.625 3.46875 -5.1875zm-18.46875 -9.09375l18.53125 0q-0.375 -4.1875 -2.125 -6.28125q-2.6875 -3.25 -6.96875 -3.25q-3.875 0 -6.515625 2.59375q-2.640625 2.59375 -2.921875 6.9375zm54.0625 9.09375l5.8125 0.71875q-1.375 5.09375 -5.09375 7.90625q-3.71875 2.8125 -9.5 2.8125q-7.28125 0 -11.546875 -4.484375q-4.265625 -4.484375 -4.265625 -12.578125q0 -8.375 4.3125 -13.0q4.3125 -4.625 11.1875 -4.625q6.65625 0 10.875 4.53125q4.21875 4.53125 4.21875 12.75q0 0.5 -0.03125 1.5l-24.75 0q0.3125 5.46875 3.09375 8.375q2.78125 2.90625 6.9375 2.90625q3.09375 0 5.28125 -1.625q2.1875 -1.625 3.46875 -5.1875zm-18.46875 -9.09375l18.53125 0q-0.375 -4.1875 -2.125 -6.28125q-2.6875 -3.25 -6.96875 -3.25q-3.875 0 -6.515625 2.59375q-2.640625 2.59375 -2.921875 6.9375zm31.28125 19.78125l0 -33.1875l5.0625 0l0 5.03125q1.9375 -3.53125 3.578125 -4.65625q1.640625 -1.125 3.609375 -1.125q2.84375 0 5.78125 1.8125l-1.9375 5.21875q-2.0625 -1.21875 -4.125 -1.21875q-1.84375 0 -3.3125 1.109375q-1.46875 1.109375 -2.09375 3.078125q-0.9375 3.0 -0.9375 6.5625l0 17.375l-5.625 0z" fill-rule="nonzero"/><path fill="#0ca4bd" d="m2498.3364 330.95145l5.8125 0.71875q-1.375 5.09375 -5.09375 7.90625q-3.71875 2.8125 -9.5 2.8125q-7.28125 0 -11.546875 -4.484375q-4.265625 -4.484375 -4.265625 -12.578125q0 -8.375 4.3125 -13.0q4.3125 -4.625 11.1875 -4.625q6.65625 0 10.875 4.53125q4.21875 4.53125 4.21875 12.75q0 0.5 -0.03125 1.5l-24.75 0q0.3125 5.46875 3.09375 8.375q2.78125 2.90625 6.9375 2.90625q3.09375 0 5.28125 -1.625q2.1875 -1.625 3.46875 -5.1875zm-18.46875 -9.09375l18.53125 0q-0.375 -4.1875 -2.125 -6.28125q-2.6875 -3.25 -6.96875 -3.25q-3.875 0 -6.515625 2.59375q-2.640625 2.59375 -2.921875 6.9375zm27.59375 19.78125l12.125 -17.25l-11.21875 -15.9375l7.03125 0l5.09375 7.78125q1.4375 2.21875 2.3125 3.71875q1.375 -2.0625 2.53125 -3.65625l5.59375 -7.84375l6.71875 0l-11.46875 15.625l12.34375 17.5625l-6.90625 0l-6.8125 -10.3125l-1.8125 -2.78125l-8.71875 13.09375l-6.8125 0zm48.03125 -5.03125l0.8125 4.96875q-2.375 0.5 -4.25 0.5q-3.0625 0 -4.75 -0.96875q-1.6875 -0.96875 -2.375 -2.546875q-0.6875 -1.578125 -0.6875 -6.640625l0 -19.09375l-4.125 0l0 -4.375l4.125 0l0 -8.21875l5.59375 -3.375l0 11.59375l5.65625 0l0 4.375l-5.65625 0l0 19.40625q0 2.40625 0.296875 3.09375q0.296875 0.6875 0.96875 1.09375q0.671875 0.40625 1.921875 0.40625q0.9375 0 2.46875 -0.21875zm5.4375 5.03125l0 -33.1875l5.0625 0l0 5.03125q1.9375 -3.53125 3.578125 -4.65625q1.640625 -1.125 3.609375 -1.125q2.84375 0 5.78125 1.8125l-1.9375 5.21875q-2.0625 -1.21875 -4.125 -1.21875q-1.84375 0 -3.3125 1.109375q-1.46875 1.109375 -2.09375 3.078125q-0.9375 3.0 -0.9375 6.5625l0 17.375l-5.625 0zm43.03125 -4.09375q-3.125 2.65625 -6.015625 3.75q-2.890625 1.09375 -6.203125 1.09375q-5.46875 0 -8.40625 -2.671875q-2.9375 -2.671875 -2.9375 -6.828125q0 -2.4375 1.109375 -4.453125q1.109375 -2.015625 2.90625 -3.234375q1.796875 -1.21875 4.046875 -1.84375q1.65625 -0.4375 5.0 -0.84375q6.8125 -0.8125 10.03125 -1.9375q0.03125 -1.15625 0.03125 -1.46875q0 -3.4375 -1.59375 -4.84375q-2.15625 -1.90625 -6.40625 -1.90625q-3.96875 0 -5.859375 1.390625q-1.890625 1.390625 -2.796875 4.921875l-5.5 -0.75q0.75 -3.53125 2.46875 -5.703125q1.71875 -2.171875 4.96875 -3.34375q3.25 -1.171875 7.53125 -1.171875q4.25 0 6.90625 1.0q2.65625 1.0 3.90625 2.515625q1.25 1.515625 1.75 3.828125q0.28125 1.4375 0.28125 5.1875l0 7.5q0 7.84375 0.359375 9.921875q0.359375 2.078125 1.421875 3.984375l-5.875 0q-0.875 -1.75 -1.125 -4.09375zm-0.46875 -12.5625q-3.0625 1.25 -9.1875 2.125q-3.46875 0.5 -4.90625 1.125q-1.4375 0.625 -2.21875 1.828125q-0.78125 1.203125 -0.78125 2.671875q0 2.25 1.703125 3.75q1.703125 1.5 4.984375 1.5q3.25 0 5.78125 -1.421875q2.53125 -1.421875 3.71875 -3.890625q0.90625 -1.90625 0.90625 -5.625l0 -2.0625zm12.3125 0.0625q0 -9.21875 5.125 -13.65625q4.28125 -3.6875 10.4375 -3.6875q6.84375 0 11.1875 4.484375q4.34375 4.484375 4.34375 12.390625q0 6.40625 -1.921875 10.078125q-1.921875 3.671875 -5.59375 5.703125q-3.671875 2.03125 -8.015625 2.03125q-6.96875 0 -11.265625 -4.46875q-4.296875 -4.46875 -4.296875 -12.875zm5.78125 0q0 6.375 2.78125 9.546875q2.78125 3.171875 7.0 3.171875q4.1875 0 6.96875 -3.1875q2.78125 -3.1875 2.78125 -9.71875q0 -6.15625 -2.796875 -9.328125q-2.796875 -3.171875 -6.953125 -3.171875q-4.21875 0 -7.0 3.15625q-2.78125 3.15625 -2.78125 9.53125zm31.84375 16.59375l0 -33.1875l5.0625 0l0 5.03125q1.9375 -3.53125 3.578125 -4.65625q1.640625 -1.125 3.609375 -1.125q2.84375 0 5.78125 1.8125l-1.9375 5.21875q-2.0625 -1.21875 -4.125 -1.21875q-1.84375 0 -3.3125 1.109375q-1.46875 1.109375 -2.09375 3.078125q-0.9375 3.0 -0.9375 6.5625l0 17.375l-5.625 0zm42.90625 0l0 -4.1875q-3.15625 4.9375 -9.28125 4.9375q-3.96875 0 -7.296875 -2.1875q-3.328125 -2.1875 -5.15625 -6.109375q-1.828125 -3.921875 -1.828125 -9.015625q0 -4.96875 1.65625 -9.015625q1.65625 -4.046875 4.96875 -6.203125q3.3125 -2.15625 7.40625 -2.15625q3.0 0 5.34375 1.265625q2.34375 1.265625 3.8125 3.296875l0 -16.4375l5.59375 0l0 45.8125l-5.21875 0zm-17.78125 -16.5625q0 6.375 2.6875 9.53125q2.6875 3.15625 6.34375 3.15625q3.6875 0 6.265625 -3.015625q2.578125 -3.015625 2.578125 -9.203125q0 -6.8125 -2.625 -10.0q-2.625 -3.1875 -6.46875 -3.1875q-3.75 0 -6.265625 3.0625q-2.515625 3.0625 -2.515625 9.65625zm31.875 -22.78125l0 -6.46875l5.625 0l0 6.46875l-5.625 0zm0 39.34375l0 -33.1875l5.625 0l0 33.1875l-5.625 0zm14.1875 0l0 -33.1875l5.0625 0l0 4.71875q3.65625 -5.46875 10.5625 -5.46875q3.0 0 5.515625 1.078125q2.515625 1.078125 3.765625 2.828125q1.25 1.75 1.75 4.15625q0.3125 1.5625 0.3125 5.46875l0 20.40625l-5.625 0l0 -20.1875q0 -3.4375 -0.65625 -5.140625q-0.65625 -1.703125 -2.328125 -2.71875q-1.671875 -1.015625 -3.921875 -1.015625q-3.59375 0 -6.203125 2.28125q-2.609375 2.28125 -2.609375 8.65625l0 18.125l-5.625 0zm57.25 -4.09375q-3.125 2.65625 -6.015625 3.75q-2.890625 1.09375 -6.203125 1.09375q-5.46875 0 -8.40625 -2.671875q-2.9375 -2.671875 -2.9375 -6.828125q0 -2.4375 1.109375 -4.453125q1.109375 -2.015625 2.90625 -3.234375q1.796875 -1.21875 4.046875 -1.84375q1.65625 -0.4375 5.0 -0.84375q6.8125 -0.8125 10.03125 -1.9375q0.03125 -1.15625 0.03125 -1.46875q0 -3.4375 -1.59375 -4.84375q-2.15625 -1.90625 -6.40625 -1.90625q-3.96875 0 -5.859375 1.390625q-1.890625 1.390625 -2.796875 4.921875l-5.5 -0.75q0.75 -3.53125 2.46875 -5.703125q1.71875 -2.171875 4.96875 -3.34375q3.25 -1.171875 7.53125 -1.171875q4.25 0 6.90625 1.0q2.65625 1.0 3.90625 2.515625q1.25 1.515625 1.75 3.828125q0.28125 1.4375 0.28125 5.1875l0 7.5q0 7.84375 0.359375 9.921875q0.359375 2.078125 1.421875 3.984375l-5.875 0q-0.875 -1.75 -1.125 -4.09375zm-0.46875 -12.5625q-3.0625 1.25 -9.1875 2.125q-3.46875 0.5 -4.90625 1.125q-1.4375 0.625 -2.21875 1.828125q-0.78125 1.203125 -0.78125 2.671875q0 2.25 1.703125 3.75q1.703125 1.5 4.984375 1.5q3.25 0 5.78125 -1.421875q2.53125 -1.421875 3.71875 -3.890625q0.90625 -1.90625 0.90625 -5.625l0 -2.0625zm14.4375 -22.6875l0 -6.46875l5.625 0l0 6.46875l-5.625 0zm0 39.34375l0 -33.1875l5.625 0l0 33.1875l-5.625 0zm14.125 0l0 -33.1875l5.0625 0l0 5.03125q1.9375 -3.53125 3.578125 -4.65625q1.640625 -1.125 3.609375 -1.125q2.84375 0 5.78125 1.8125l-1.9375 5.21875q-2.0625 -1.21875 -4.125 -1.21875q-1.84375 0 -3.3125 1.109375q-1.46875 1.109375 -2.09375 3.078125q-0.9375 3.0 -0.9375 6.5625l0 17.375l-5.625 0zm44.09375 -10.6875l5.8125 0.71875q-1.375 5.09375 -5.09375 7.90625q-3.71875 2.8125 -9.5 2.8125q-7.28125 0 -11.546875 -4.484375q-4.265625 -4.484375 -4.265625 -12.578125q0 -8.375 4.3125 -13.0q4.3125 -4.625 11.1875 -4.625q6.65625 0 10.875 4.53125q4.21875 4.53125 4.21875 12.75q0 0.5 -0.03125 1.5l-24.75 0q0.3125 5.46875 3.09375 8.375q2.78125 2.90625 6.9375 2.90625q3.09375 0 5.28125 -1.625q2.1875 -1.625 3.46875 -5.1875zm-18.46875 -9.09375l18.53125 0q-0.375 -4.1875 -2.125 -6.28125q-2.6875 -3.25 -6.96875 -3.25q-3.875 0 -6.515625 2.59375q-2.640625 2.59375 -2.921875 6.9375zm34.34375 8.40625l-1.71875 -24.28125l0 -10.15625l6.96875 0l0 10.15625l-1.625 24.28125l-3.625 0zm-1.46875 11.375l0 -6.40625l6.46875 0l0 6.40625l-6.46875 0z" fill-rule="nonzero"/><path fill="#000000" fill-opacity="0.0" d="m2685.601 1358.3989l379.21265 0l0 174.51965l-379.21265 0z" fill-rule="evenodd"/><path fill="#0ca4bd" d="m2747.2886 1428.839l0 -45.8125l6.0625 0l0 40.40625l22.5625 0l0 5.40625l-28.625 0zm57.84375 -10.6875l5.8125 0.71875q-1.375 5.09375 -5.09375 7.90625q-3.71875 2.8125 -9.5 2.8125q-7.28125 0 -11.546875 -4.484375q-4.265625 -4.484375 -4.265625 -12.578125q0 -8.375 4.3125 -13.0q4.3125 -4.625 11.1875 -4.625q6.65625 0 10.875 4.53125q4.21875 4.53125 4.21875 12.75q0 0.5 -0.03125 1.5l-24.75 0q0.3125 5.46875 3.09375 8.375q2.78125 2.90625 6.9375 2.90625q3.09375 0 5.28125 -1.625q2.1875 -1.625 3.46875 -5.1875zm-18.46875 -9.09375l18.53125 0q-0.375 -4.1875 -2.125 -6.28125q-2.6875 -3.25 -6.96875 -3.25q-3.875 0 -6.515625 2.59375q-2.640625 2.59375 -2.921875 6.9375zm43.625 14.75l0.8125 4.96875q-2.375 0.5 -4.25 0.5q-3.0625 0 -4.75 -0.96875q-1.6875 -0.96875 -2.375 -2.546875q-0.6875 -1.578125 -0.6875 -6.640625l0 -19.09375l-4.125 0l0 -4.375l4.125 0l0 -8.21875l5.59375 -3.375l0 11.59375l5.65625 0l0 4.375l-5.65625 0l0 19.40625q0 2.40625 0.296875 3.09375q0.296875 0.6875 0.96875 1.09375q0.671875 0.40625 1.921875 0.40625q0.9375 0 2.46875 -0.21875zm5.15625 -34.71875l0 -6.53125l6.03125 0l0 5.15625q0 4.1875 -0.96875 6.03125q-1.34375 2.53125 -4.1875 3.8125l-1.375 -2.21875q1.6875 -0.6875 2.515625 -2.171875q0.828125 -1.484375 0.921875 -4.078125l-2.9375 0zm11.15625 29.84375l5.5625 -0.875q0.46875 3.34375 2.609375 5.125q2.140625 1.78125 5.984375 1.78125q3.875 0 5.75 -1.578125q1.875 -1.578125 1.875 -3.703125q0 -1.90625 -1.65625 -3.0q-1.15625 -0.75 -5.75 -1.90625q-6.1875 -1.5625 -8.578125 -2.703125q-2.390625 -1.140625 -3.625 -3.15625q-1.234375 -2.015625 -1.234375 -4.453125q0 -2.21875 1.015625 -4.109375q1.015625 -1.890625 2.765625 -3.140625q1.3125 -0.96875 3.578125 -1.640625q2.265625 -0.671875 4.859375 -0.671875q3.90625 0 6.859375 1.125q2.953125 1.125 4.359375 3.046875q1.40625 1.921875 1.9375 5.140625l-5.5 0.75q-0.375 -2.5625 -2.171875 -4.0q-1.796875 -1.4375 -5.078125 -1.4375q-3.875 0 -5.53125 1.28125q-1.65625 1.28125 -1.65625 3.0q0 1.09375 0.6875 1.96875q0.6875 0.90625 2.15625 1.5q0.84375 0.3125 4.96875 1.4375q5.96875 1.59375 8.328125 2.609375q2.359375 1.015625 3.703125 2.953125q1.34375 1.9375 1.34375 4.8125q0 2.8125 -1.640625 5.296875q-1.640625 2.484375 -4.734375 3.84375q-3.09375 1.359375 -7.0 1.359375q-6.46875 0 -9.859375 -2.6875q-3.390625 -2.6875 -4.328125 -7.96875z" fill-rule="nonzero"/><path fill="#0ca4bd" d="m2780.226 1489.5764l6.0625 1.53125q-1.90625 7.46875 -6.859375 11.390625q-4.953125 3.921875 -12.109375 3.921875q-7.40625 0 -12.046875 -3.015625q-4.640625 -3.015625 -7.0625 -8.734375q-2.421875 -5.71875 -2.421875 -12.28125q0 -7.15625 2.734375 -12.484375q2.734375 -5.328125 7.78125 -8.09375q5.046875 -2.765625 11.109375 -2.765625q6.875 0 11.5625 3.5q4.6875 3.5 6.53125 9.84375l-5.96875 1.40625q-1.59375 -5.0 -4.625 -7.28125q-3.03125 -2.28125 -7.625 -2.28125q-5.28125 0 -8.828125 2.53125q-3.546875 2.53125 -4.984375 6.796875q-1.4375 4.265625 -1.4375 8.796875q0 5.84375 1.703125 10.203125q1.703125 4.359375 5.296875 6.515625q3.59375 2.15625 7.78125 2.15625q5.09375 0 8.625 -2.9375q3.53125 -2.9375 4.78125 -8.71875zm10.71875 -0.53125q0 -9.21875 5.125 -13.65625q4.28125 -3.6875 10.4375 -3.6875q6.84375 0 11.1875 4.484375q4.34375 4.484375 4.34375 12.390625q0 6.40625 -1.921875 10.078125q-1.921875 3.671875 -5.59375 5.703125q-3.671875 2.03125 -8.015625 2.03125q-6.96875 0 -11.265625 -4.46875q-4.296875 -4.46875 -4.296875 -12.875zm5.78125 0q0 6.375 2.78125 9.546875q2.78125 3.171875 7.0 3.171875q4.1875 0 6.96875 -3.1875q2.78125 -3.1875 2.78125 -9.71875q0 -6.15625 -2.796875 -9.328125q-2.796875 -3.171875 -6.953125 -3.171875q-4.21875 0 -7.0 3.15625q-2.78125 3.15625 -2.78125 9.53125zm31.90625 16.59375l0 -33.1875l5.0625 0l0 4.71875q3.65625 -5.46875 10.5625 -5.46875q3.0 0 5.515625 1.078125q2.515625 1.078125 3.765625 2.828125q1.25 1.75 1.75 4.15625q0.3125 1.5625 0.3125 5.46875l0 20.40625l-5.625 0l0 -20.1875q0 -3.4375 -0.65625 -5.140625q-0.65625 -1.703125 -2.328125 -2.71875q-1.671875 -1.015625 -3.921875 -1.015625q-3.59375 0 -6.203125 2.28125q-2.609375 2.28125 -2.609375 8.65625l0 18.125l-5.625 0zm35.59375 0l0 -33.1875l5.0625 0l0 4.71875q3.65625 -5.46875 10.5625 -5.46875q3.0 0 5.515625 1.078125q2.515625 1.078125 3.765625 2.828125q1.25 1.75 1.75 4.15625q0.3125 1.5625 0.3125 5.46875l0 20.40625l-5.625 0l0 -20.1875q0 -3.4375 -0.65625 -5.140625q-0.65625 -1.703125 -2.328125 -2.71875q-1.671875 -1.015625 -3.921875 -1.015625q-3.59375 0 -6.203125 2.28125q-2.609375 2.28125 -2.609375 8.65625l0 18.125l-5.625 0zm58.3125 -10.6875l5.8125 0.71875q-1.375 5.09375 -5.09375 7.90625q-3.71875 2.8125 -9.5 2.8125q-7.28125 0 -11.546875 -4.484375q-4.265625 -4.484375 -4.265625 -12.578125q0 -8.375 4.3125 -13.0q4.3125 -4.625 11.1875 -4.625q6.65625 0 10.875 4.53125q4.21875 4.53125 4.21875 12.75q0 0.5 -0.03125 1.5l-24.75 0q0.3125 5.46875 3.09375 8.375q2.78125 2.90625 6.9375 2.90625q3.09375 0 5.28125 -1.625q2.1875 -1.625 3.46875 -5.1875zm-18.46875 -9.09375l18.53125 0q-0.375 -4.1875 -2.125 -6.28125q-2.6875 -3.25 -6.96875 -3.25q-3.875 0 -6.515625 2.59375q-2.640625 2.59375 -2.921875 6.9375zm53.0 7.625l5.53125 0.71875q-0.90625 5.71875 -4.640625 8.953125q-3.734375 3.234375 -9.171875 3.234375q-6.8125 0 -10.953125 -4.453125q-4.140625 -4.453125 -4.140625 -12.765625q0 -5.375 1.78125 -9.40625q1.78125 -4.03125 5.421875 -6.046875q3.640625 -2.015625 7.921875 -2.015625q5.40625 0 8.84375 2.734375q3.4375 2.734375 4.40625 7.765625l-5.46875 0.84375q-0.78125 -3.34375 -2.765625 -5.03125q-1.984375 -1.6875 -4.796875 -1.6875q-4.25 0 -6.90625 3.046875q-2.65625 3.046875 -2.65625 9.640625q0 6.6875 2.5625 9.71875q2.5625 3.03125 6.6875 3.03125q3.3125 0 5.53125 -2.03125q2.21875 -2.03125 2.8125 -6.25zm22.625 7.125l0.8125 4.96875q-2.375 0.5 -4.25 0.5q-3.0625 0 -4.75 -0.96875q-1.6875 -0.96875 -2.375 -2.546875q-0.6875 -1.578125 -0.6875 -6.640625l0 -19.09375l-4.125 0l0 -4.375l4.125 0l0 -8.21875l5.59375 -3.375l0 11.59375l5.65625 0l0 4.375l-5.65625 0l0 19.40625q0 2.40625 0.296875 3.09375q0.296875 0.6875 0.96875 1.09375q0.671875 0.40625 1.921875 0.40625q0.9375 0 2.46875 -0.21875zm8.5 -6.34375l-1.71875 -24.28125l0 -10.15625l6.96875 0l0 10.15625l-1.625 24.28125l-3.625 0zm-1.46875 11.375l0 -6.40625l6.46875 0l0 6.40625l-6.46875 0z" fill-rule="nonzero"/><path fill="#000000" fill-opacity="0.0" d="m2659.2021 1572.0l-2.3937988 -225.60632" fill-rule="evenodd"/><path stroke="#0ca4bd" stroke-width="4.0" stroke-linejoin="round" stroke-linecap="butt" d="m2659.2021 1572.0l-2.3937988 -225.60632" fill-rule="evenodd"/><path fill="#000000" fill-opacity="0.0" d="m2428.8005 381.59842l600.0 0" fill-rule="evenodd"/><path stroke="#0ca4bd" stroke-width="4.0" stroke-linejoin="round" stroke-linecap="butt" d="m2428.8005 381.59842l600.0 0" fill-rule="evenodd"/><path fill="#000000" fill-opacity="0.0" d="m292.80054 1560.0l1675.2126 -12.0" fill-rule="evenodd"/><path stroke="#0ca4bd" stroke-width="8.0" stroke-linejoin="round" stroke-linecap="butt" d="m292.80054 1560.0l1675.2126 -12.0" fill-rule="evenodd"/><path fill="#0ca4bd" d="m271.19946 1522.0029l0 0c0 -9.50061 7.7018127 -17.202393 17.202454 -17.202393l114.38251 0c4.562378 0 8.937897 1.8123779 12.163971 5.038452c3.2260742 3.2260742 5.0384827 7.6015625 5.0384827 12.16394l0 68.80774c0 9.50061 -7.701782 17.202515 -17.202454 17.202515l-114.38251 0c-9.500641 0 -17.202454 -7.7019043 -17.202454 -17.202515z" fill-rule="evenodd"/><path stroke="#000000" stroke-width="1.0" stroke-linejoin="round" stroke-linecap="butt" d="m271.19946 1522.0029l0 0c0 -9.50061 7.7018127 -17.202393 17.202454 -17.202393l114.38251 0c4.562378 0 8.937897 1.8123779 12.163971 5.038452c3.2260742 3.2260742 5.0384827 7.6015625 5.0384827 12.16394l0 68.80774c0 9.50061 -7.701782 17.202515 -17.202454 17.202515l-114.38251 0c-9.500641 0 -17.202454 -7.7019043 -17.202454 -17.202515z" fill-rule="evenodd"/><path fill="#0ca4bd" d="m2997.601 364.80072l0 0c0 -5.3026123 4.298584 -9.601257 9.601318 -9.601257l64.79736 0c2.5463867 0 4.9885254 1.0115662 6.7890625 2.8121643c1.8007812 1.8005676 2.8122559 4.242676 2.8122559 6.789093l0 38.40381c0 5.3026123 -4.298584 9.601257 -9.601318 9.601257l-64.79736 0c-5.3027344 0 -9.601318 -4.298645 -9.601318 -9.601257z" fill-rule="evenodd"/><path stroke="#000000" stroke-width="1.0" stroke-linejoin="round" stroke-linecap="butt" d="m2997.601 364.80072l0 0c0 -5.3026123 4.298584 -9.601257 9.601318 -9.601257l64.79736 0c2.5463867 0 4.9885254 1.0115662 6.7890625 2.8121643c1.8007812 1.8005676 2.8122559 4.242676 2.8122559 6.789093l0 38.40381c0 5.3026123 -4.298584 9.601257 -9.601318 9.601257l-64.79736 0c-5.3027344 0 -9.601318 -4.298645 -9.601318 -9.601257z" fill-rule="evenodd"/><path fill="#0ca4bd" d="m2630.399 1319.6012l0 0c0 -5.0822754 4.120117 -9.2022705 9.202393 -9.2022705l36.80786 0l0 0c2.4406738 0 4.78125 0.9696045 6.50708 2.6953125c1.7258301 1.725708 2.6953125 4.0664062 2.6953125 6.506958l0 55.989136c0 5.0822754 -4.120117 9.2022705 -9.202393 9.2022705l-36.80786 0c-5.0822754 0 -9.202393 -4.119995 -9.202393 -9.2022705z" fill-rule="evenodd"/><path stroke="#000000" stroke-width="1.0" stroke-linejoin="round" stroke-linecap="butt" d="m2630.399 1319.6012l0 0c0 -5.0822754 4.120117 -9.2022705 9.202393 -9.2022705l36.80786 0l0 0c2.4406738 0 4.78125 0.9696045 6.50708 2.6953125c1.7258301 1.725708 2.6953125 4.0664062 2.6953125 6.506958l0 55.989136c0 5.0822754 -4.120117 9.2022705 -9.202393 9.2022705l-36.80786 0c-5.0822754 0 -9.202393 -4.119995 -9.202393 -9.2022705z" fill-rule="evenodd"/></g></svg>