<?xml version="1.0" encoding="UTF-8"?>
<svg xmlns="http://www.w3.org/2000/svg" xmlns:xlink="http://www.w3.org/1999/xlink" viewBox="0 0 96 96" width="96px" height="96px">
<g id="surface134485350">
<path style=" stroke:none;fill-rule:nonzero;fill:rgb(4.705882%,64.313728%,74.117649%);fill-opacity:1;" d="M 86.203125 27.839844 C 85.441406 23.617188 81.796875 20.542969 77.566406 19.582031 C 71.234375 18.238281 59.519531 17.28125 46.84375 17.28125 C 34.175781 17.28125 22.273438 18.238281 15.9375 19.582031 C 11.714844 20.542969 8.0625 23.421875 7.296875 27.839844 C 6.523438 32.640625 5.761719 39.359375 5.761719 48 C 5.761719 56.640625 6.523438 63.359375 7.484375 68.160156 C 8.257812 72.382812 11.902344 75.457031 16.125 76.417969 C 22.84375 77.761719 34.363281 78.71875 47.039062 78.71875 C 59.714844 78.71875 71.234375 77.761719 77.953125 76.417969 C 82.175781 75.457031 85.824219 72.578125 86.59375 68.160156 C 87.359375 63.359375 88.320312 56.445312 88.515625 48 C 88.125 39.359375 87.164062 32.640625 86.203125 27.839844 Z M 36.480469 61.441406 L 36.480469 34.558594 L 59.902344 48 Z M 36.480469 61.441406 "/>
</g>
</svg>
