<?xml version="1.0" encoding="UTF-8"?>
<svg xmlns="http://www.w3.org/2000/svg" xmlns:xlink="http://www.w3.org/1999/xlink" viewBox="0 0 50 50" width="50px" height="50px">
<g id="surface102971671">
<path style=" stroke:none;fill-rule:nonzero;fill:rgb(4.705882%,64.313728%,74.117649%);fill-opacity:1;" d="M 24.855469 0 C 24.585938 0.0117188 24.324219 0.121094 24.128906 0.308594 C 21.933594 2.578125 20.648438 5.554688 20.5 8.6875 C 20.644531 11.820312 21.933594 14.796875 24.128906 17.070312 L 25.09375 18.023438 L 26.558594 19.464844 L 32.164062 24.992188 L 26.558594 30.523438 L 27.433594 31.386719 C 30.046875 34.0625 31.566406 37.589844 31.707031 41.304688 C 31.703125 42.230469 31.597656 43.152344 31.386719 44.058594 L 48.367188 27.300781 C 49.660156 26.027344 49.660156 23.960938 48.367188 22.6875 L 25.683594 0.308594 C 25.460938 0.0976562 25.164062 -0.0117188 24.855469 0 Z M 18.613281 5.933594 L 1.632812 22.6875 C 0.339844 23.960938 0.339844 26.027344 1.632812 27.300781 L 24.316406 49.6875 C 24.746094 50.113281 25.441406 50.113281 25.871094 49.6875 C 28.066406 47.414062 29.351562 44.441406 29.5 41.308594 C 29.351562 38.175781 28.066406 35.199219 25.871094 32.929688 L 17.835938 24.996094 L 23.441406 19.464844 L 22.566406 18.601562 C 19.953125 15.925781 18.433594 12.398438 18.296875 8.6875 C 18.296875 7.757812 18.402344 6.835938 18.613281 5.933594 Z M 18.613281 5.933594 "/>
</g>
</svg>
